<?xml version="1.0" encoding="UTF-8"?>
<svg width="808.06" height="192" version="1.1" viewBox="0 0 808.06 192" xmlns="http://www.w3.org/2000/svg" xmlns:inkstitch="http://inkstitch.org/namespace" xmlns:xlink="http://www.w3.org/1999/xlink">
 <g transform="translate(404.03 96)">
  <g id="__color_block_0__">
   <path transform="" d="m0 0 43.465 19.276 0.75591 4.5354-0.75591-4.5354 0.75591 4.5354-0.75591-4.5354 0.75591 4.5354-1.1339-6.0472 14.74 0.75591h-9.8268l-6.4252 0.75591h10.205l4.5354 0.75591-16.252 0.75591h4.5354l10.205 0.75591h-6.8031l-9.8268 0.75591 15.118 0.75591h-12.85l-3.4016 0.75591h7.5591l7.1811 0.75591h-3.7795l-12.472 0.75591 14.74 0.75591h-9.8268l-6.4252 0.75591h10.583l4.1575 0.75591-16.252 0.75591h4.1575l10.583 0.75591h-6.8031l-9.4488 0.75591 14.74 0.75591h-12.85l-3.4016 0.75591h7.1811l7.5591 0.75591h-3.7795l-12.472 0.75591h15.496-4.5354-4.5354 4.5354 4.5354-4.5354 4.5354" fill="none" stroke="#000" stroke-width=".4" inkstitch:manual_stitch="true"/>
   <g transform="">
    <path d="m19.331-25.275 8.6195 37.67" fill="none" stroke="#000" stroke-opacity=".5" stroke-width="1px"/>
    <use x="19.328189719908103" y="-25.31088884786962" width="100%" height="100%" xlink:href="#inkstitch_trim"/>
   </g>
   <path transform="" d="m43.843-34.016 1.1339-0.75591-1.1339 0.75591 1.1339-0.75591-1.1339 0.75591 1.1339-0.75591-1.1339 0.75591 1.1339-0.75591 0.37795-1.5118 0.75591-1.1339 7.5591-2.6457 4.9134-1.5118h-13.984l-2.2677 0.75591h5.6693l9.4488 0.75591h-5.6693l-10.961 0.75591 15.118 0.75591h-11.339l-4.9134 0.75591h8.315l6.4252 0.75591h-2.6457l-13.606 0.75591h2.2677l12.85 0.75591h-8.6929l-7.937 0.75591h11.339l3.7795 0.75591-16.63 0.75591h5.2913l9.8268 0.75591h-5.6693l-10.961 0.75591 15.496 0.75591h-12.472l-4.5354 0.75591h8.315l7.1811 0.75591h-3.0236l-13.606 0.75591 15.118 0.75591h-9.4488l-7.1811 0.75591h10.961l4.1575 0.75591h-15.874l9.0709-0.37795 6.0472-1.1339h-7.1811l-7.1811 0.75591h10.961l3.4016 0.75591-15.874 0.75591h4.9134 10.961-4.5354-4.5354 4.5354 4.5354-4.5354 4.5354" fill="none" stroke="#000" stroke-width=".4" inkstitch:manual_stitch="true"/>
   <g transform="">
    <path d="m37.993-70.79 4.4815 31.369" fill="none" stroke="#000" stroke-opacity=".5" stroke-width="1px"/>
    <use x="37.989929057212606" y="-70.82609941040481" width="100%" height="100%" xlink:href="#inkstitch_trim"/>
   </g>
   <path transform="" d="m26.457-31.37 1.5118-4.1575-1.5118 4.1575 1.5118-4.1575-1.5118 4.1575 1.5118-4.1575-1.5118 4.1575 2.2677-6.4252 5.2913-5.2913 2.2677-7.1811-2.6457-6.8031-4.5354-6.0472-6.0472-4.5354-6.4252-2.6457-7.5591-0.37795-7.1811 1.1339-6.4252 3.0236-3.0236 3.4016 7.5591-0.75591 7.1811 1.1339 7.1811 2.6457 5.2913 3.7795 4.9134 5.6693 3.0236 5.6693 1.1339 7.1811v3.0236l-0.37795-1.1339 2.2677-7.937-1.1339-9.0709-4.9134-7.1811-7.937-4.1575-8.6929-1.8898-8.315 0.37795-8.315 2.6457-7.937 7.5591-4.9134 7.1811 1.5118-0.75591-1.1339-0.75591 2.2677-0.75591-1.8898-0.75591 3.4016-0.75591-3.0236-0.75591 4.9134-0.75591-4.5354-0.75591 6.4252-0.75591-5.6693-0.75591h6.8031l1.8898-0.75591h-5.2913l-2.6457-0.75591 12.094-0.75591h-2.2677l-9.4488-0.75591h5.6693l8.6929-0.75591-13.228-0.75591h13.228l6.4252-6.0472-0.75591-8.315h12.472l6.0472 0.75591h-2.6457-15.118l-5.2913 0.75591h9.0709 15.118l2.6457 0.75591h-13.984l-15.874 0.75591h4.9134 15.118l12.472 0.75591h-9.0709-15.118l-10.583 0.75591h14.362 15.118l7.1811 0.75591h-3.4016-15.118-15.118l-4.9134 0.75591h9.0709 15.118l16.63 0.75591h-13.228-15.118l-14.362 0.75591h3.0236 15.118 15.118l10.961 0.75591h-7.1811-15.118-15.118l-7.937 0.75591h12.094 15.118 15.118l4.5354 0.75591h-16.252-15.118-15.118l-1.8898 0.75591h5.6693 15.118 15.118l13.606 0.75591h-9.8268-15.118-15.118l-10.583 0.75591h14.74 15.118 15.118l6.8031 0.75591h-3.4016-15.118-15.118-15.118l-4.1575 0.75591h7.937 15.118 15.118l15.496 0.75591h-11.717-15.118-15.118l-12.472 0.75591h16.63 15.118 15.118l8.6929 0.75591h-5.2913-15.118l-12.472 0.75591h16.252 15.118l2.2677 0.75591h-13.606l-15.118 0.75591h4.1575 15.118l10.205 0.75591h-6.8031-15.118l-4.9134 0.75591h8.6929 15.118l3.4016 0.75591h-14.74l-10.205 0.75591h14.362l10.961 0.75591h-7.5591l-15.874 0.75591h4.5354 15.118l4.1575 0.75591h-15.496l-6.8031 0.75591h10.961l11.717 0.75591h-8.315l-13.228 0.75591h17.008l4.9134 0.75591h-16.252l-4.5354 0.75591h8.6929l12.472 0.75591h-9.0709l-10.961 0.75591h14.74l5.2913 0.75591h-16.63l-2.6457 0.75591h6.8031l11.717 0.75591h-8.315l-9.8268 0.75591h13.606l3.0236 0.75591-15.874 0.75591h5.6693l9.0709 0.75591h-5.6693l-8.6929 0.75591 12.85 0.75591-12.472 0.75591h4.9134l6.0472 0.75591h-2.6457l-8.315 0.75591 9.4488 0.75591-9.0709 0.75591h4.5354l3.0236 0.75591-7.5591 0.75591 6.0472 0.75591-6.0472 0.75591 4.9134 0.75591-4.9134 0.75591 3.4016 0.75591-3.4016 0.75591 2.2677 0.75591-2.2677-0.75591 2.2677 0.75591-2.2677-0.75591 2.2677 0.75591-2.2677-0.75591 2.2677 0.75591" fill="none" stroke="#000" stroke-width=".4" inkstitch:manual_stitch="true"/>
   <g transform="">
    <path d="m1.8923-104.8 4.5364 29.964" fill="none" stroke="#000" stroke-opacity=".5" stroke-width="1px"/>
    <use x="1.8897637795275593" y="-104.83464566929135" width="100%" height="100%" xlink:href="#inkstitch_trim"/>
   </g>
   <path transform="" d="m-56.693 44.976 0.37795 4.5354-0.37795-4.5354 0.37795 4.5354-0.37795-4.5354 0.37795 4.5354-0.37795-4.5354 0.75591 7.5591 1.8898 6.8031 2.6457 6.8031 3.7795 6.0472 4.5354 6.0472 5.6693 4.5354 6.0472 3.7795 5.6693 2.6457 7.1811 1.8898 7.5591 0.75591 7.1811-0.75591 6.0472-0.75591 6.4252-2.6457 6.4252-3.4016 6.0472-4.5354 5.2913-5.2913 3.7795-5.6693 3.4016-6.4252 1.8898-6.0472 1.1339-7.937-2.6457-6.4252-4.1575 4.9134-1.1339 7.5591-2.6457 6.8031-3.7795 6.8031-4.5354 5.6693-5.6693 4.5354-6.0472 3.0236-7.5591 2.2677-6.4252 1.1339-6.8031-0.37795-7.5591-1.8898-6.4252-2.6457-6.0472-4.1575-4.9134-4.9134-4.5354-6.0472-3.0236-6.8031-1.5118-6.0472-0.75591-7.5591v-6.0472-6.4252-6.4252-7.1811-6.4252-7.5591l0.37795-7.5591-0.37795-7.5591 0.37795-6.0472v-7.5591-6.4252l-0.37795-7.5591v-7.1811l0.37795-6.4252 1.8898-6.4252 1.5118-6.0472 2.2677-6.0472 3.7795-5.6693 5.6693-5.2913-5.6693 5.2913-4.5354 6.0472-6.8031 11.339-2.6457 6.8031-1.8898 7.1811-1.1339 7.937 0.37795 6.8031-0.37795 6.0472v7.1811 6.4252 6.4252 6.8031l0.37795 6.4252v6.4252l-0.37795 6.8031v6.4252l0.37795 6.8031-0.37795 6.8031 0.37795 3.7795 4.1575 0.37795 0.75591 9.4488 3.0236 8.6929 4.9134 7.1811 5.2913 6.4252 7.1811 4.9134 7.937 3.4016 8.6929 1.5118 9.0709-0.75591 9.4488-1.1339 1.8898 4.9134 6.0472-7.5591 6.4252-7.1811 18.142-21.543 1.5118-2.2677-1.8898 0.37795-4.9134 7.937-18.142 21.543-6.0472 6.4252-8.6929 1.8898-7.1811-5.6693-2.6457-0.75591v-1.8898l-6.0472 7.1811-2.6457 3.0236-12.85-10.961-6.8031-5.6693-5.6693-6.4252-1.8898-2.6457 3.7795-5.2913-6.0472 7.1811-1.5118 2.2677-3.0236-9.0709-3.0236-8.6929-1.1339-3.4016 6.4252-7.1811 4.1575-5.2913v-9.4488-9.4488-10.583l-6.0472 7.1811-4.9134 6.0472v-9.4488-9.4488-10.583l6.0472-7.1811 5.2913-6.0472v-9.4488-9.8268l0.37795-10.583-6.4252 7.1811-5.2913 6.4252 5.2913 7.1811 0.37795 8.6929v8.315l-0.37795 8.315 0.37795 9.4488v8.315 9.4488 8.6929 8.315 8.6929l1.5118 8.6929 3.4016 8.6929 5.2913 7.5591 5.2913 6.4252 7.1811 4.1575 8.6929 3.4016 9.0709 1.5118 8.6929-0.37795 9.0709-2.6457 7.5591-3.0236 6.8031-5.6693 5.6693-6.0472 4.5354-8.315 2.2677-8.315 6.8031-6.0472-6.8031-7.937-3.4016 9.0709-3.0236 8.315-1.1339 3.0236 6.0472 7.1811 1.8898 1.8898-6.0472-1.5118-5.2913 7.1811-7.1811 6.4252-7.937 3.7795-3.7795 1.1339-8.315-3.4016 6.4252 7.1811 1.8898 2.2677-7.937-4.1575h-9.0709l-8.315-1.8898-7.937-3.7795-6.8031-4.9134-6.0472-6.0472-4.5354-7.5591-3.0236-7.937-1.8898-8.6929 0.75591-8.6929-0.37795-8.6929-0.37795-8.315 0.37795-9.4488v-8.315l-0.37795-9.4488 0.37795-8.315-0.37795-9.0709 0.37795-8.6929v-9.0709l1.1339-9.0709 2.6457-7.937 3.0236-8.315 5.2913-6.8031 10.205-11.339-6.8031 6.4252-5.2913 6.8031-4.9134 8.6929-3.0236 7.5591-0.75591 6.4252 1.5118 9.0709 1.5118 9.4488 0.75591 3.7795-6.0472-7.1811-4.5354-5.2913v9.0709l-0.37795 9.8268v9.8268l6.0472 7.1811 4.9134 6.0472v9.4488 9.4488l0.37795 10.961-6.4252-7.5591-4.5354-5.6693v9.4488 9.4488 10.583l12.094 14.362 6.0472 7.5591 12.094 14.362 5.2913 6.4252-5.2913-7.5591-7.5591-4.9134-6.8031-5.6693-4.9134-7.5591-3.4016-7.937-1.8898-8.315v-8.6929-8.315-8.6929-8.315-9.4488-9.0709-9.0709-9.4488-9.0709-9.0709l0.37795-8.6929 2.2677-9.0709 3.0236-7.937 4.5354-8.315 12.472-12.472 6.8031-4.5354 7.937-3.0236 1.5118-0.37795h-2.2677l-3.4016 0.75591 3.0236 0.75591-7.1811 0.75591 4.5354 0.75591-7.937 0.75591 6.0472 0.75591h-3.0236l-6.0472 0.75591 6.8031 0.75591-9.4488 0.75591h4.9134l2.6457 0.75591-9.8268 0.75591 8.315 0.75591h-4.5354l-6.0472 0.75591 8.6929 0.75591-10.583 0.75591h3.7795l5.2913 0.75591-10.583 0.75591 9.4488 0.75591h-7.937l-3.4016 0.75591h7.1811l2.6457 0.75591-11.339 0.75591 10.205 0.75591h-5.2913l-6.4252 0.75591 10.583 0.75591-12.094 0.75591h4.1575l7.1811 0.75591h-3.4016l-9.0709 0.75591 11.339 0.75591h-9.4488l-3.0236 0.75591h6.4252l4.9134 0.75591-12.472 0.75591 11.717 0.75591h-7.5591l-5.2913 0.75591h8.6929l3.4016 0.75591-12.85 0.75591 12.094 0.75591h-6.0472l-7.1811 0.75591h10.583l2.2677 0.75591-13.606 0.75591h3.7795l9.0709 0.75591h-4.9134l-8.6929 0.75591 13.228 0.75591-13.984 0.75591h5.2913l7.937 0.75591h-3.7795l-10.205 0.75591 13.606 0.75591h-11.339l-2.6457 0.75591h6.4252l7.1811 0.75591h-3.0236l-11.339 0.75591 13.984 0.75591h-10.583l-4.1575 0.75591h7.937l6.8031 0.75591h-2.6457l-12.472 0.75591 14.74 0.75591h-10.205l-4.9134 0.75591h8.6929l6.0472 0.75591-15.118 0.75591 15.118 0.75591h-9.8268l-5.6693 0.75591h9.4488l6.0472 0.75591-15.874 0.75591h2.2677l13.228 0.75591h-9.4488l-6.4252 0.75591h10.205l5.6693 0.75591-16.252 0.75591h3.0236l13.228 0.75591h-9.4488l-6.8031 0.75591h10.583l5.6693 0.75591-16.63 0.75591h3.4016l13.228 0.75591h-9.4488l-7.1811 0.75591h10.961l5.6693 0.75591-17.008 0.75591h3.7795l13.228 0.75591h-9.4488l-7.5591 0.75591h11.339l5.6693 0.75591-17.008 0.75591h3.7795l13.228 0.75591h-9.4488l-7.5591 0.75591h11.339l5.6693 0.75591-17.008 0.75591h3.7795l13.228 0.75591h-9.4488l-7.5591 0.75591h11.339l5.6693 0.75591-17.008 0.75591h3.7795l13.228 0.75591h-9.4488l-7.5591 0.75591h11.339l5.6693 0.75591-17.008 0.75591h3.7795l13.228 0.75591h-9.4488l-7.5591 0.75591h11.339l5.6693 0.75591-17.008 0.75591h3.7795l13.228 0.75591h-9.4488l-7.5591 0.75591h11.339l5.6693 0.75591-17.008 0.75591h3.7795l13.228 0.75591h-9.4488l-7.5591 0.75591h11.339l5.6693 0.75591-17.008 0.75591h3.7795l13.228 0.75591h-9.4488l-7.5591 0.75591h11.339l5.6693 0.75591-17.008 0.75591h3.7795l13.228 0.75591h-9.4488l-7.5591 0.75591h11.339l5.6693 0.75591-17.008 0.75591h3.7795l13.228 0.75591h-9.4488l-7.5591 0.75591h11.339l5.6693 0.75591-17.008 0.75591h3.7795l13.228 0.75591h-9.4488l-7.5591 0.75591h11.339l5.6693 0.75591-17.008 0.75591h3.7795l13.228 0.75591h-9.4488l-7.5591 0.75591h11.339l5.6693 0.75591-17.008 0.75591h3.7795l13.228 0.75591h-9.4488l-7.5591 0.75591h11.339l5.6693 0.75591-17.008 0.75591h3.7795l13.228 0.75591h-9.4488l-7.5591 0.75591h11.339l5.6693 0.75591-17.008 0.75591h3.7795l13.228 0.75591h-9.4488l-7.5591 0.75591h11.339l5.6693 0.75591-17.008 0.75591h3.7795l13.228 0.75591h-9.4488l-7.5591 0.75591h11.339l5.6693 0.75591-17.008 0.75591h3.7795l13.228 0.75591h-9.4488l-7.5591 0.75591h11.339l5.6693 0.75591-17.008 0.75591h3.7795l13.228 0.75591h-9.4488l-7.5591 0.75591h11.339l5.6693 0.75591-17.008 0.75591h3.7795l13.228 0.75591h-9.4488l-7.5591 0.75591h11.339l5.6693 0.75591-17.008 0.75591h3.7795l13.228 0.75591h-9.4488l-7.5591 0.75591h11.339l5.6693 0.75591-17.008 0.75591h3.7795l13.228 0.75591h-9.4488l-7.5591 0.75591h11.339l5.6693 0.75591-17.008 0.75591h3.7795l13.228 0.75591h-9.4488l-7.5591 0.75591h11.339l5.6693 0.75591-17.008 0.75591h3.7795l13.228 0.75591h-9.4488l-7.5591 0.75591h11.339l5.6693 0.75591-17.008 0.75591h3.7795l13.228 0.75591h-9.4488l-7.5591 0.75591h11.339l5.6693 0.75591-17.008 0.75591h3.7795l13.228 0.75591h-9.4488l-7.5591 0.75591h11.339l5.6693 0.75591-17.008 0.75591h3.7795l13.228 0.75591h-9.4488l-7.5591 0.75591h11.339l5.6693 0.75591-17.008 0.75591h3.7795l13.228 0.75591h-9.4488l-7.5591 0.75591h11.339l5.6693 0.75591-17.008 0.75591h3.7795l13.228 0.75591h-9.4488l-7.5591 0.75591h11.339l5.6693 0.75591-16.63 0.75591h3.4016l13.606 0.75591h-9.8268l-7.1811 0.75591h10.961l6.0472 0.75591-17.008 0.75591h3.4016l13.984 0.75591h-10.205l-7.1811 0.75591h10.961l6.4252 0.75591h-2.2677l-14.74 0.75591h3.0236l14.362 0.75591h-10.583l-6.4252 0.75591h10.205l7.1811 0.75591h-3.0236l-14.362 0.75591h2.6457l15.118 0.75591h-11.339l-6.0472 0.75591h9.8268l8.315 0.75591h-4.1575l-13.606 0.75591 18.142 0.75591h-12.472l-5.2913 0.75591h9.0709l9.8268 0.75591h-5.6693l-12.472 0.75591h15.874l3.0236 0.75591h-14.362l-4.1575 0.75591h7.937l11.339 0.75591h-7.1811l-11.717 0.75591h15.118l4.9134 0.75591h-16.252l-3.0236 0.75591h6.8031l13.606 0.75591h-9.4488l-10.205 0.75591h13.606l7.5591 0.75591h-3.7795l-16.63 0.75591h5.2913l16.252 0.75591h-12.094l-8.6929 0.75591h12.094l10.583 0.75591h-6.8031l-14.74 0.75591h3.4016 15.118l4.9134 0.75591h-15.874l-6.8031 0.75591h10.205l14.74 0.75591h-10.961l-12.85 0.75591h16.63l9.4488 0.75591h-5.2913-15.118l-4.5354 0.75591h7.937 15.118l5.2913 0.75591h-16.63l-10.583 0.75591h14.362l17.764 0.75591h-13.606-15.118l-2.2677 0.75591h5.6693 15.118l15.874 0.75591h-12.094-15.118l-7.937 0.75591h11.717 15.118l8.315 0.75591h-4.1575-15.118-14.74l8.6929-1.5118 8.315 3.4016 9.0709 2.6457 8.315 1.5118h8.6929l7.937-3.0236 7.937-3.4016 6.8031-6.0472 6.0472-6.4252 4.5354-7.5591 2.2677-7.937 1.1339-9.0709 6.8031-5.6693 1.1339-0.75591h-5.2913l-11.717 0.75591 17.008 0.75591h-12.472l-4.5354 0.75591h7.937l9.0709 0.75591h-5.2913l-11.717 0.75591 17.008 0.75591h-12.472l-4.5354 0.75591h7.937l9.0709 0.75591h-5.2913l-11.717 0.75591 17.008 0.75591h-12.472l-4.5354 0.75591h7.937l9.0709 0.75591h-5.2913l-12.094 0.75591 17.008 0.75591h-12.094l-4.9134 0.75591h8.315l8.6929 0.75591h-4.9134l-12.472 0.75591 17.386 0.75591h-12.094l-5.6693 0.75591h9.0709l8.315 0.75591h-4.5354l-13.228 0.75591 17.386 0.75591h-11.339l-6.4252 0.75591h9.8268l7.5591 0.75591h-3.7795l-13.984 0.75591h2.6457l14.74 0.75591h-10.583l-7.5591 0.75591h10.961l6.8031 0.75591h-3.0236l-15.118 0.75591h3.7795l13.984 0.75591h-9.8268l-8.6929 0.75591h12.094l6.0472 0.75591h-2.2677-15.118l-1.8898 0.75591h5.6693l12.85 0.75591h-8.6929l-10.583 0.75591h13.984l4.9134 0.75591h-16.252l-3.7795 0.75591h7.5591l11.717 0.75591h-7.5591l-13.228 0.75591h16.63l3.4016 0.75591h-14.74l-6.4252 0.75591h10.205l9.8268 0.75591h-5.6693l-15.874 0.75591h4.1575l16.63 0.75591h-12.85l-9.8268 0.75591h13.606l8.315 0.75591h-4.1575-15.118l-4.5354 0.75591h7.937l14.74 0.75591h-10.961l-14.362 0.75591h3.0236 15.118l6.0472 0.75591h-17.008l-9.8268 0.75591h13.228l12.472 0.75591h-8.6929-15.118l-5.6693 0.75591h9.4488 15.118l3.4016 0.75591h-14.362-16.63l-4.9134 0.75591h9.8268 15.118l9.4488 0.75591h-5.6693-15.118-14.362l-11.717 0.37795h-15.118l-12.094 0.37795h11.717 15.118 15.118 15.118l15.874 0.75591h-11.717-15.118-15.118-15.118l-14.362 0.75591h2.6457 15.118 15.118 15.118 15.118l6.4252 0.75591h-2.6457-15.118-15.118-15.118-15.118l-4.5354 0.75591h8.315 15.118 15.118 15.118l12.472 0.75591h-8.315-15.118-15.118-15.118l-10.961 0.75591h14.362 15.118 15.118 15.118l3.0236 0.75591h-14.362-15.118-15.118l-15.874 0.75591h4.5354 15.118 15.118 15.118l8.315 0.75591h-4.1575-15.118-15.118-15.118l-6.0472 0.75591h9.4488 15.118 15.118l13.228 0.75591h-9.4488-15.118-15.118l-10.961 0.75591h14.74 15.118 15.118l3.0236 0.75591h-13.984-15.118l-15.874 0.75591h4.1575 15.118 15.118l7.5591 0.75591h-3.7795-15.118-15.118l-4.5354 0.75591h8.315 15.118l10.961 0.75591h-6.8031-15.118l-7.5591 0.75591h10.961 15.118l-2.2677 0.75591h-9.0709-11.339 4.5354 4.5354-4.5354-4.5354 4.5354-4.5354" fill="none" stroke="#000" stroke-width=".4" inkstitch:manual_stitch="true"/>
  </g>
  <g id="__color_block_1__">
   <path transform="" d="m-29.102-44.22 0.37795-4.5354-0.37795 4.5354 0.37795-4.5354-0.37795 4.5354 0.37795-4.5354-0.37795 4.5354 0.75591-6.4252 1.1339-6.4252 2.6457-6.0472 3.7795-5.2913 4.9134-5.2913 5.2913-4.1575 7.1811-3.0236 6.0472-1.8898 7.1811-0.75591 7.5591 0.75591 7.1811 1.8898 6.0472 3.4016 5.6693 4.1575 4.9134 4.9134 3.7795 6.4252 2.6457 6.4252 4.9134 5.2913 2.6457-6.4252-2.2677-6.8031-3.7795-6.0472-4.5354-5.6693-5.2913-5.2913-5.6693-4.1575-6.4252-2.6457-7.1811-2.2677-7.5591-1.1339-7.1811 0.37795-6.0472 0.75591-6.0472 1.8898-6.4252 3.0236-6.0472 4.1575-4.5354 4.1575-4.5354 5.6693-3.7795 6.0472-2.2677 6.0472-1.1339 6.0472-1.1339 7.1811-0.37795 7.1811v7.5591l0.37795 7.5591v7.5591 7.1811 6.4252 7.5591 7.5591 6.4252 7.1811 7.5591 7.5591l0.37795 7.1811 1.5118 6.4252 3.7795 6.0472 5.2913 5.6693 5.6693 3.0236 6.4252 1.5118h6.4252l7.5591-1.5118 6.0472-3.7795 2.2677-2.2677-7.5591 0.37795-6.8031-0.75591-6.4252-1.5118-5.2913-3.0236-5.2913-5.6693-3.7795-5.6693-2.2677-6.0472-0.75591-7.5591v-6.4252-6.8031-6.4252l0.37795-6.4252v-6.8031-6.4252l-0.37795-6.4252v-6.4252-7.1811-6.4252-6.4252l-0.37795-6.0472-3.7795-0.75591 1.8898-9.0709 2.6457-8.315 4.1575-8.315 6.4252-5.6693 6.8031-4.9134 7.5591-3.7795 8.315-2.6457h8.315l8.315 1.5118 8.315 3.4016 7.5591 4.1575 6.4252 5.6693 5.2913 7.937-1.8898 8.6929 5.2913-6.8031 1.8898-2.2677-7.5591-3.0236-6.0472-7.1811-6.8031-4.9134-7.5591-4.1575-8.315 3.4016 6.0472-7.1811 1.8898-2.2677-9.4488-0.37795-9.4488-1.1339h-4.1575l-12.094 14.362-3.7795 4.1575h-8.6929l-4.1575 7.5591-4.9134 8.315-1.8898 8.6929 0.75591 9.0709-0.37795 8.315v8.6929 9.4488l0.37795 9.4488-0.37795 9.0709v8.6929l0.75591 7.937-0.37795 10.961 0.37795 9.0709 1.8898 8.315 4.1575 7.937 6.0472 6.4252 6.4252 5.2913v3.7795l6.0472-7.1811-4.9134-4.9134-7.5591-4.9134-1.5118-1.8898 0.75591-1.5118-6.4252 7.1811-3.4016 4.5354-3.4016-9.0709-3.4016-8.6929-1.1339-2.2677 6.0472-7.1811 4.9134-6.0472v-9.4488-9.4488-10.583l-6.0472 7.1811-5.2913 6.4252v-9.4488-9.4488l0.37795-10.961 6.0472-7.1811 5.2913-6.4252-1.5118-0.37795-0.37795-8.315 0.37795-9.4488 1.1339-9.0709 4.9134-7.5591-12.094 14.362-3.7795 4.5354 6.0472-6.0472 1.5118-8.6929 4.1575-7.1811 5.2913-7.5591 6.4252-5.6693 7.937-4.5354 8.315-2.6457 9.0709-0.75591h9.0709l7.937 3.0236 7.937 4.5354 6.0472 4.9134 6.0472 7.5591 3.4016 8.315-2.2677 7.937-3.7795 3.4016h10.961l6.0472-0.75591h-9.8268l-7.5591-0.75591h3.7795l13.606-0.75591-17.386-0.75591h11.339l5.6693-0.75591h-9.4488l-7.937-0.75591h4.1575l13.228-0.75591-17.764-0.75591h12.094l5.2913-0.75591h-9.0709l-8.6929-0.75591h4.9134l12.472-0.75591h-15.874l-2.2677-0.75591h13.228l4.5354-0.75591h-8.315l-9.8268-0.75591h6.0472l11.717-0.75591h-15.118l-3.4016-0.75591h14.362l3.7795-0.75591h-7.5591l-11.339-0.75591h7.5591l10.961-0.75591h-14.362l-4.9134-0.75591h15.874l2.6457-0.75591h-6.4252l-13.228-0.75591h9.4488l9.8268-0.75591h-13.228l-7.1811-0.75591h3.0236l16.63-0.75591h-5.2913l-15.496-0.75591h11.717l8.315-0.75591h-11.717l-9.8268-0.75591h5.6693l15.118-0.75591h-3.7795-15.118l-3.4016-0.75591h14.74l6.4252-0.75591h-9.8268l-12.85-0.75591h8.6929l13.228-0.75591h-17.008l-7.1811-0.75591h3.4016 15.118l4.5354-0.75591h-7.937-15.118l-2.2677-0.75591h13.228l10.961-0.75591h-14.74l-12.472-0.75591h8.6929 15.118l2.2677-0.75591h-5.6693-15.118l-9.0709-0.75591h4.9134 15.118l8.6929-0.75591h-12.472-15.118-3.7795l-4.5354-0.75591h4.5354 15.118l14.74-0.75591h-3.0236-15.118-15.118l-1.8898-0.75591h12.85 15.118l5.6693-0.75591h-9.4488-15.118-9.0709l6.0472-6.4252 1.8898-7.1811h-6.0472l-18.142 0.75591h6.4252 15.118l8.315 0.75591h-4.5354-15.118l-14.74 0.75591h3.4016 15.118 15.118l4.9134 0.75591h-15.874-15.118l-11.339 0.75591h14.74 15.118l15.874 0.75591h-12.094-15.118-15.118l-6.4252 0.75591h10.205 15.118 15.118l10.961 0.75591h-6.8031-15.118-15.118l-16.63 0.75591h4.9134 15.118 15.118 15.118l5.6693 0.75591h-17.008-15.118-15.118l-10.961 0.75591h14.74 15.118 15.118l15.496 0.75591h-11.339-15.118-15.118-15.118l-5.6693 0.75591h9.0709 15.118 15.118 15.118l9.8268 0.75591h-6.0472-15.118-15.118-15.118l-14.74 0.75591h3.4016 15.118 15.118 15.118 15.118l4.1575 0.75591h-15.118-15.118-15.118-15.118l-9.0709 0.75591h12.472 15.118 15.118 15.118l13.228 0.75591h-9.4488-15.118-15.118-15.118-15.118l-3.0236 0.75591h6.8031 15.118 15.118 15.118 15.118 6.4252l-17.386 0.37795-15.118 0.37795h-6.8031-8.315-15.118l-12.094 0.75591h15.496 19.276l-4.5354 0.75591h-10.961-15.118l-5.6693 0.75591h9.4488 15.118l2.2677 0.75591h-13.228l-14.74 0.75591h3.0236 15.118l6.4252 0.75591h-2.6457-15.118l-7.937 0.75591h11.717l11.339 0.75591h-7.1811-15.118l-1.8898 0.75591h5.2913 15.118l1.8898 0.75591h-13.228l-10.205 0.75591h13.984l7.5591 0.75591h-3.4016-15.118l-3.7795 0.75591h7.1811l13.606 0.75591h-9.8268l-12.094 0.75591h15.874l4.5354 0.75591h-15.496l-5.6693 0.75591h9.0709l10.961 0.75591h-7.1811l-13.228 0.75591h17.008l2.2677 0.75591h-13.228l-6.8031 0.75591h10.205l8.6929 0.75591h-4.9134l-14.74 0.75591h3.4016l15.496 0.75591h-11.339l-7.937 0.75591h11.339l6.8031 0.75591h-3.0236l-15.874 0.75591h4.5354l13.984 0.75591h-9.8268l-9.0709 0.75591h12.472l5.6693 0.75591-18.52 0.75591h5.2913l12.85 0.75591h-8.6929l-9.8268 0.75591h13.228l4.5354 0.75591h-15.874l-1.8898 0.75591h5.6693l11.717 0.75591h-7.5591l-10.205 0.75591h13.606l3.7795 0.75591h-15.118l-2.2677 0.75591h6.0472l11.339 0.75591h-7.1811l-10.583 0.75591h13.984l3.4016 0.75591h-14.74l-2.6457 0.75591h6.4252l10.961 0.75591h-6.8031l-10.583 0.75591h13.984l3.4016 0.75591h-14.74l-2.6457 0.75591h6.4252l10.583 0.75591h-6.4252l-10.583 0.75591h13.984l3.0236 0.75591h-14.362l-2.6457 0.75591h6.4252l10.583 0.75591h-6.4252l-10.583 0.75591h13.984l3.0236 0.75591h-14.362l-2.6457 0.75591h6.4252l10.583 0.75591h-6.4252l-10.583 0.75591h13.984l3.0236 0.75591h-14.362l-2.6457 0.75591h6.4252l10.583 0.75591h-6.4252l-10.583 0.75591h13.984l3.0236 0.75591h-14.362l-2.6457 0.75591h6.4252l10.583 0.75591h-6.4252l-10.583 0.75591h13.984l3.0236 0.75591h-14.362l-2.6457 0.75591h6.4252l10.583 0.75591h-6.4252l-10.583 0.75591h13.984l3.0236 0.75591h-14.362l-2.6457 0.75591h6.4252l10.583 0.75591h-6.4252l-10.583 0.75591h13.984l3.0236 0.75591h-14.362l-2.6457 0.75591h6.4252l10.583 0.75591h-6.4252l-10.583 0.75591h13.984l3.0236 0.75591h-14.362l-2.6457 0.75591h6.4252l10.583 0.75591h-6.4252l-10.583 0.75591h13.984l3.0236 0.75591h-14.362l-2.6457 0.75591h6.4252l10.583 0.75591h-6.4252l-10.583 0.75591h13.984l3.0236 0.75591h-14.362l-2.6457 0.75591h6.4252l10.583 0.75591h-6.4252l-10.583 0.75591h13.984l3.0236 0.75591h-14.362l-2.6457 0.75591h6.4252l10.583 0.75591h-6.4252l-10.583 0.75591h13.984l3.0236 0.75591h-14.362l-2.6457 0.75591h6.4252l10.583 0.75591h-6.4252l-10.583 0.75591h13.984l3.0236 0.75591h-14.362l-2.6457 0.75591h6.4252l10.583 0.75591h-6.4252l-10.583 0.75591h13.984l3.0236 0.75591h-14.362l-2.6457 0.75591h6.4252l10.583 0.75591h-6.4252l-10.583 0.75591h13.984l3.0236 0.75591h-14.362l-2.6457 0.75591h6.4252l10.583 0.75591h-6.4252l-10.583 0.75591h13.984l3.0236 0.75591h-14.362l-2.6457 0.75591h6.4252l10.583 0.75591h-6.4252l-10.583 0.75591h13.984l3.0236 0.75591h-14.362l-2.6457 0.75591h6.4252l10.583 0.75591h-6.4252l-10.583 0.75591h13.984l3.0236 0.75591h-14.362l-2.6457 0.75591h6.4252l10.583 0.75591h-6.4252l-10.583 0.75591h13.984l3.0236 0.75591h-14.362l-2.6457 0.75591h6.4252l10.583 0.75591h-6.4252l-10.583 0.75591h13.984l3.0236 0.75591h-14.362l-2.6457 0.75591h6.4252l10.583 0.75591h-6.4252l-10.583 0.75591h13.984l3.0236 0.75591h-14.362l-2.6457 0.75591h6.4252l10.583 0.75591h-6.4252l-10.583 0.75591h13.984l3.0236 0.75591h-14.362l-2.6457 0.75591h6.4252l10.583 0.75591h-6.4252l-10.583 0.75591h13.984l3.0236 0.75591h-14.362l-2.6457 0.75591h6.4252l10.583 0.75591h-6.4252l-10.583 0.75591h13.984l3.0236 0.75591h-14.362l-2.6457 0.75591h6.4252l10.583 0.75591h-6.4252l-10.583 0.75591h13.984l3.0236 0.75591h-14.362l-2.6457 0.75591h6.4252l10.583 0.75591h-6.4252l-10.583 0.75591h13.984l3.0236 0.75591h-14.362l-2.6457 0.75591h6.4252l10.583 0.75591h-6.4252l-10.583 0.75591h13.984l3.4016 0.75591h-14.74l-2.6457 0.75591h6.4252l10.961 0.75591h-6.8031l-10.583 0.75591h13.984l3.7795 0.75591h-15.118l-2.6457 0.75591h6.4252l11.717 0.75591h-7.5591l-10.583 0.75591h13.984l4.5354 0.75591h-15.874l-2.6457 0.75591h6.4252l12.472 0.75591h-8.315l-10.583 0.75591h13.984l5.6693 0.75591h-17.008l-2.6457 0.75591h6.4252l13.984 0.75591h-9.8268l-10.583 0.75591h13.984l7.5591 0.75591h-3.7795-15.118l-2.2677 0.75591h6.0472l16.252 0.75591h-12.094l-9.8268 0.75591h13.228l9.8268 0.75591h-6.0472-15.118l-1.8898 0.75591h5.6693 15.118l3.7795 0.75591h-14.74l-9.4488 0.75591h12.85l13.228 0.75591h-9.4488l-15.874 0.75591h4.5354 15.118l7.937 0.75591h-3.7795-15.118l-8.315 0.75591h11.717 15.118l3.4016 0.75591h-14.74l-14.74 0.75591h3.4016 15.118l17.008 0.75591h-12.85-15.118l-6.8031 0.75591h10.205 15.118l10.205 0.75591h-6.4252-15.118l-13.228 0.75591h17.008 15.118 2.6457l8.315 3.0236 7.5591-4.5354 7.937-11.339-1.8898 0.75591 1.8898 0.75591-3.0236 0.75591 2.6457 0.75591-4.1575 0.75591 3.7795 0.75591-5.2913 0.75591h2.2677l2.6457 0.75591-7.1811 0.75591 6.8031 0.75591h-5.6693l-3.7795 0.75591 8.6929 0.75591-12.094 0.75591h3.0236l8.315 0.75591h-4.1575l-11.717 0.75591 15.118 0.75591h-11.339-15.118-15.118l-13.228 0.75591h17.008 15.118 15.118l6.4252 0.75591h-2.2677-15.118-15.118-15.118l-4.9134 0.75591h8.315 15.118 15.118l12.85 0.75591h-9.0709-15.118-15.118l-10.961 0.75591h14.74 15.118 15.118l4.1575 0.75591h-15.118-15.118-15.118l-2.2677 0.75591h5.6693 15.118 15.118l10.205 0.75591h-6.4252-15.118-15.118l-7.937 0.75591h11.717 15.118l16.252 0.75591h-12.094-15.118l-14.362 0.75591h2.6457 15.118 15.118l6.8031 0.75591h-3.0236-15.118-15.118l-4.5354 0.75591h8.315 15.118l12.472 0.75591h-8.315-15.118l-9.8268 0.75591h13.228 15.118l2.2677 0.75591h-13.606l-14.362 0.75591h3.0236 15.118l6.4252 0.75591h-2.2677-15.118-5.6693 9.8268 9.0709l1.8898-1.5118h-7.937l-10.205 0.75591h13.984l4.1575 0.75591h-15.118l-3.0236 0.75591h6.4252 11.717-4.5354-4.5354 4.5354 4.5354-4.5354 4.5354" fill="none" stroke="#B54A63" stroke-width=".4" inkstitch:manual_stitch="true"/>
   <g transform="">
    <path d="m-2.0564-123.79 3.1485 29.859" fill="none" stroke="#000" stroke-opacity=".5" stroke-width="1px"/>
    <use x="-2.0590224329843974" y="-123.83000155181401" width="100%" height="100%" xlink:href="#inkstitch_trim"/>
   </g>
   <path transform="" d="m49.512 44.976-0.37795 4.5354 0.37795-4.5354-0.37795 4.5354 0.37795-4.5354-0.37795 4.5354 0.37795-4.5354-0.37795 7.937-3.0236 12.094-2.6457 6.0472-4.1575 5.6693-6.0472 6.0472 5.6693-4.5354 4.1575-5.6693 3.7795-5.2913 3.7795-6.4252 3.0236-6.4252 2.2677-7.1811 0.75591-6.4252v-7.1811l-7.5591 4.1575 0.75591 7.5591 3.7795-2.2677-0.37795-2.6457 5.2913 1.5118-6.0472 7.1811-6.0472 7.5591 3.7795 0.37795-3.0236 7.937-3.7795 7.1811-6.0472 6.8031-6.8031 6.4252-7.1811 5.2913-7.1811 3.7795-1.8898-0.75591h3.4016l3.4016-0.75591-3.7795-0.75591 3.7795-0.75591h-2.6457l3.4016 0.37795 7.937-5.2913 6.0472-6.0472 5.6693-7.1811 5.2913-8.315 4.1575-9.0709 1.5118-9.0709 1.1339-8.6929 4.1575-9.8268 1.8898-4.5354 1.8898-3.4016-2.2677 0.75591 2.2677 0.75591-3.7795 0.75591 3.7795 0.75591-5.2913 0.75591 5.2913 0.75591-6.8031 0.75591 6.8031 0.75591-8.315 0.75591 8.315 0.75591-9.8268 0.75591h3.7795l6.0472 0.75591-11.339 0.75591 11.339 0.75591h-9.8268l-3.0236 0.75591h6.8031l6.0472 0.75591-14.362 0.75591 14.362 0.75591h-9.8268l-6.0472 0.75591h9.8268l6.0472 0.75591-17.008 0.75591h3.4016l13.606 0.75591h-9.8268l-7.1811 0.75591h10.961l6.0472 0.75591-17.008 0.75591h3.4016l13.606 0.75591h-9.8268l-7.1811 0.75591h10.961l5.6693 0.75591-16.63 0.75591h3.4016l13.228 0.75591h-9.4488l-7.1811 0.75591h10.961l5.2913 0.75591-16.252 0.75591h3.4016l12.85 0.75591h-9.0709l-7.1811 0.75591h10.961l4.9134 0.75591-15.874 0.75591h3.4016l12.094 0.75591h-8.315l-7.5591 0.75591h11.339l4.1575 0.75591-15.496 0.75591h3.7795l11.339 0.75591h-7.5591l-7.937 0.75591h11.717l3.4016 0.75591-15.118 0.75591h4.1575l10.583 0.75591h-6.8031l-8.315 0.75591h12.094l2.2677 0.75591-14.74 0.75591h4.9134l9.4488 0.75591h-5.6693l-9.0709 0.75591 13.984 0.75591h-12.094l-2.2677 0.75591h5.6693l7.937 0.75591h-4.1575l-9.8268 0.75591 13.228 0.75591h-10.583l-3.4016 0.75591h6.8031l6.4252 0.75591h-2.6457l-10.961 0.75591 12.85 0.75591h-9.0709l-4.5354 0.75591h7.937l4.5354 0.75591-12.85 0.75591 12.094 0.75591h-7.1811l-5.6693 0.75591h9.0709l2.6457 0.75591-12.472 0.75591h2.2677l9.0709 0.75591h-4.9134l-7.5591 0.75591 11.339 0.75591-12.094 0.75591h4.1575l6.4252 0.75591h-2.2677l-9.4488 0.75591 10.583 0.75591h-9.0709l-2.6457 0.75591h6.4252l3.7795 0.75591-11.339 0.75591 9.8268 0.75591h-6.0472l-4.9134 0.75591 9.4488 0.75591-10.961 0.75591h2.6457l6.8031 0.75591h-3.0236l-7.5591 0.75591 8.315 0.75591h-7.937l-1.8898 0.75591h5.2913l2.6457 0.75591-9.8268 0.75591 7.5591 0.75591h-3.7795l-5.6693 0.75591 7.1811 0.75591-9.0709 0.75591h3.4016l3.0236 0.75591-8.6929 0.75591 5.2913 0.75591h-3.4016l-4.1575 0.75591h6.0472-4.5354 4.5354-4.5354 4.5354-4.5354 4.5354" fill="none" stroke="#B54A63" stroke-width=".4" inkstitch:manual_stitch="true"/>
  </g>
  <g id="__color_block_2__">
   <path transform="" d="m157.23 70.299-4.5354 0.75591 4.5354-0.75591-4.5354 0.75591 4.5354-0.75591-4.5354 0.75591 7.1811-1.1339 6.4252-2.6457 6.8031-4.9134h-6.8031l-7.5591 0.37795h-6.4252-6.4252l-6.8031 2.6457 3.4016 5.6693h7.5591l2.6457-0.37795 1.1339-4.5354 8.6929-0.75591 8.6929-2.2677 7.1811-6.0472 4.9134-6.4252 1.5118-4.5354 1.1339 0.75591-2.2677 0.75591 1.8898 0.75591-3.4016 0.75591 3.0236 0.75591-4.1575 0.75591 3.7795 0.75591-5.6693 0.75591 5.2913 0.75591-7.1811 0.75591h4.5354l2.2677 0.75591-9.0709 0.75591 8.315 0.75591h-5.2913l-6.8031 0.75591 11.339 0.75591h-12.094-2.2677l-8.6929 0.37795-15.118 0.37795h-5.2913 5.2913 15.118 15.118l7.1811 0.75591h-3.7795-15.118-15.118l-9.8268 0.75591h13.606 15.118l14.362 0.75591h-10.583-15.118-15.118l-3.7795 0.75591h7.937 15.118 15.118l4.9134 0.75591h-16.63-15.118l-12.85 0.75591h16.63 15.118l11.717 0.75591h-7.937-15.118-15.118l-6.8031 0.75591h10.961 15.118 15.118l2.6457 0.75591h-14.362-15.118l-16.252 0.75591h4.9134 15.118 15.118l9.0709 0.75591h-5.2913-15.118-15.118l-10.205 0.75591h14.362 15.118l14.362 0.75591h-10.961-15.118-15.118l-4.1575 0.75591h7.937 15.118 15.118l5.2913 0.75591h-16.63-15.118l-13.228 0.75591h2.2677 15.118 15.118l10.205 0.75591h-6.8031-15.118-15.118l-7.1811 0.75591h10.961 15.118l15.118 0.75591h-11.339-15.118l-15.874 0.75591h4.9134 15.118 15.118l3.4016 0.75591h-15.118-15.118l-9.8268 0.75591h13.606 15.118 8.315-4.5354 4.5354-4.5354 4.5354-4.5354 4.5354" fill="none" stroke="#000" stroke-width=".4" inkstitch:manual_stitch="true"/>
   <g transform="">
    <path d="m152.7 23.611 1.7869 34.342" fill="none" stroke="#000" stroke-opacity=".5" stroke-width="1px"/>
    <use x="152.6939241764543" y="23.574717367885935" width="100%" height="100%" xlink:href="#inkstitch_trim"/>
   </g>
   <path transform="" d="m122.83-92.976 1.1339 4.5354-1.1339-4.5354 1.1339 4.5354-1.1339-4.5354 1.1339 4.5354-1.1339-4.5354 1.5118 6.4252v6.4252 7.1811 6.8031 7.5591 6.4252 6.8031 6.8031 6.4252l0.37795 6.8031-0.37795 6.0472v6.4252 7.5591 6.8031l0.37795 6.8031-0.37795 6.8031v6.4252 6.8031 7.1811 6.4252 6.4252l0.37795 6.8031 0.75591 4.1575 6.0472-4.1575 1.1339-6.8031v-6.4252-7.1811-6.4252-7.5591-7.5591-6.4252-7.1811-6.4252-5.6693-6.4252-6.4252-7.5591-6.4252-7.5591-6.4252-6.4252-5.6693-6.4252l0.75591-6.8031 5.2913-4.1575 6.8031-0.37795h6.4252 6.4252 6.4252 6.4252l7.5591 0.37795 7.1811 1.5118 6.0472 1.8898 5.6693 3.7795 5.6693 4.9134 4.5354 5.6693 3.4016 6.4252 2.2677 5.6693 0.75591 6.4252 0.37795 7.1811v7.1811 7.5591l0.37795 7.5591-0.37795 7.5591v7.1811 7.5591 7.5591 7.1811 7.5591 7.937 6.8031 6.8031l-1.5118 6.4252-1.8898 6.0472-2.2677 6.4252-3.0236 6.0472-4.9134 5.2913-5.2913 5.2913 5.2913-4.1575 4.1575-6.0472 4.1575-5.2913 4.5354-6.4252 3.4016-5.6693 2.6457-6.8031 1.8898-7.1811 0.75591-6.4252v-7.1811-6.4252-6.4252l0.37795-6.8031v-6.4252-6.4252-6.8031l-0.37795-6.0472v-6.4252l0.37795-6.8031v-6.4252-7.5591l-0.75591-6.4252-1.1339-6.0472-2.2677-6.8031-3.7795-6.0472-4.5354-6.4252-5.2913-4.9134-5.2913-3.7795-6.0472-3.4016-7.1811-2.6457-7.1811-1.5118-6.8031-0.37795h-7.5591-6.8031-6.4252l-6.4252 0.37795-6.8031-0.37795h-6.4252l-5.2913 0.37795 8.315 3.7795h8.6929l8.6929 0.37795 9.0709-0.37795 9.0709 0.37795 8.315-0.37795 8.6929 2.2677 7.937 3.7795 7.5591 4.5354 5.6693 6.0472 4.9134 7.937 3.4016 7.937 1.5118 8.6929v9.0709l0.37795 8.6929-0.37795 9.0709 0.37795 8.6929-0.37795 8.315 0.37795 9.4488-0.37795 9.4488v8.315 9.8268l5.6693 1.8898-6.0472 7.1811-6.4252 7.5591 1.8898-0.37795 4.9134-7.5591 4.1575-8.315-3.4016-8.315-6.8031-5.6693 12.094-14.362v-9.0709-9.4488l-0.37795-10.583-6.0472 7.1811-5.6693 7.1811v-9.4488-9.4488-10.961l6.0472-7.1811 5.2913-6.0472-3.4016-8.6929-3.7795-8.6929-1.1339-2.2677-6.0472 7.1811-5.6693-6.4252-7.937-6.4252-1.1339 1.1339 6.0472-7.1811 1.5118-1.8898-8.6929-3.7795-9.4488-3.7795-6.0472 7.1811-2.6457 3.0236h-9.4488l-9.4488 0.37795h-6.0472l6.0472-7.1811 4.1575-4.9134-6.8031 6.0472-9.4488-0.37795h-8.315l-7.5591 4.9134-0.37795 8.6929v9.0709 9.4488 8.315l0.37795 8.6929v9.4488l-0.37795 9.0709v8.6929 9.4488 8.315 8.6929 8.315l0.37795 2.2677 5.6693 0.75591-6.0472 7.1811-6.0472 6.8031v-9.0709-9.4488-10.583l12.094-14.362v-9.4488-9.4488-10.583l-12.094 14.362v-9.4488-9.4488-10.583l12.094-14.362-1.5118-0.37795-0.37795-8.6929 0.37795-9.0709 7.1811-6.0472-3.7795-7.1811-12.094 14.362-1.8898 1.8898 6.4252 5.6693v8.6929 8.315 8.6929 9.4488 7.937 9.0709 9.4488 9.0709 9.0709 9.4488 9.0709 9.0709 9.0709l-1.1339 8.6929-3.0236 7.937-3.7795 8.315-1.5118 1.8898 2.6457-0.75591-2.6457-0.75591 4.1575-0.75591h-2.2677l-1.8898-0.75591 5.6693-0.75591-5.6693-0.75591 7.1811-0.75591h-5.2913l-1.8898-0.75591 8.6929-0.75591-8.6929-0.75591h5.6693l4.5354-0.75591h-8.315l-1.8898-0.75591 11.717-0.75591-11.717-0.75591h5.6693l7.5591-0.75591h-11.339l-1.8898-0.75591 14.74-0.75591h-4.9134l-9.8268-0.75591h5.6693l10.583-0.75591h-14.362l-1.8898-0.75591h13.228l4.5354-0.75591h-7.937l-9.8268-0.75591h5.6693l12.472-0.75591h-16.252l-1.8898-0.75591h13.228l4.9134-0.75591h-8.315l-9.8268-0.75591h5.6693l12.472-0.75591h-16.252l-1.8898-0.75591h13.228l4.9134-0.75591h-8.315l-9.8268-0.75591h5.6693l12.472-0.75591h-16.252l-1.8898-0.75591h13.228l4.9134-0.75591h-8.315l-9.8268-0.75591h5.6693l12.472-0.75591h-16.252l-1.8898-0.75591h13.228l4.9134-0.75591h-8.315l-9.8268-0.75591h5.6693l12.472-0.75591h-16.252l-1.8898-0.75591h13.228l4.9134-0.75591h-8.315l-9.8268-0.75591h5.6693l12.472-0.75591h-16.252l-1.8898-0.75591h13.228l4.9134-0.75591h-8.315l-9.8268-0.75591h5.6693l12.472-0.75591h-16.252l-1.8898-0.75591h13.228l4.9134-0.75591h-8.315l-9.8268-0.75591h5.6693l12.472-0.75591h-16.252l-1.8898-0.75591h13.228l4.9134-0.75591h-8.315l-9.8268-0.75591h5.6693l12.472-0.75591h-16.252l-1.8898-0.75591h13.228l4.9134-0.75591h-8.315l-9.8268-0.75591h5.6693l12.472-0.75591h-16.252l-1.8898-0.75591h13.228l4.9134-0.75591h-8.315l-9.8268-0.75591h5.6693l12.472-0.75591h-16.252l-1.8898-0.75591h13.228l4.9134-0.75591h-8.315l-9.8268-0.75591h5.6693l12.472-0.75591h-16.252l-1.8898-0.75591h13.228l4.9134-0.75591h-8.315l-9.8268-0.75591h5.6693l12.472-0.75591h-16.252l-1.8898-0.75591h13.228l4.9134-0.75591h-8.315l-9.8268-0.75591h5.6693l12.472-0.75591h-16.252l-1.8898-0.75591h13.228l4.9134-0.75591h-8.315l-9.8268-0.75591h5.6693l12.472-0.75591h-16.252l-1.8898-0.75591h13.228l4.9134-0.75591h-8.315l-9.8268-0.75591h5.6693l12.472-0.75591h-16.252l-1.8898-0.75591h13.228l4.9134-0.75591h-8.315l-9.8268-0.75591h5.6693l12.472-0.75591h-16.252l-1.8898-0.75591h13.228l4.9134-0.75591h-8.315l-9.8268-0.75591h5.6693l12.472-0.75591h-16.252l-1.8898-0.75591h13.228l4.9134-0.75591h-8.315l-9.8268-0.75591h5.6693l12.472-0.75591h-16.252l-1.8898-0.75591h13.228l4.9134-0.75591h-8.315l-9.8268-0.75591h5.6693l12.472-0.75591h-16.252l-1.8898-0.75591h13.228l4.9134-0.75591h-8.315l-9.8268-0.75591h5.6693l12.472-0.75591h-16.252l-1.8898-0.75591h13.228l4.9134-0.75591h-8.315l-9.8268-0.75591h5.6693l12.472-0.75591h-16.252l-1.8898-0.75591h13.228l4.9134-0.75591h-8.315l-9.8268-0.75591h5.6693l12.472-0.75591h-16.252l-1.8898-0.75591h13.228l4.9134-0.75591h-8.315l-9.8268-0.75591h5.6693l12.472-0.75591h-16.252l-1.8898-0.75591h13.228l4.9134-0.75591h-8.315l-9.8268-0.75591h5.6693l12.472-0.75591h-16.252l-1.8898-0.75591h13.228l4.9134-0.75591h-8.315l-9.8268-0.75591h5.6693l12.472-0.75591h-16.252l-1.8898-0.75591h13.228l4.9134-0.75591h-8.315l-9.8268-0.75591h5.6693l12.472-0.75591h-16.252l-1.8898-0.75591h13.228l4.9134-0.75591h-8.315l-9.8268-0.75591h5.6693l12.472-0.75591h-16.252l-1.8898-0.75591h13.228l4.9134-0.75591h-8.315l-9.8268-0.75591h5.6693l12.472-0.75591h-16.252l-1.8898-0.75591h13.228l4.9134-0.75591h-8.315l-9.8268-0.75591h5.6693l12.472-0.75591h-16.252l-1.8898-0.75591h13.228l4.9134-0.75591h-8.315l-9.8268-0.75591h5.6693l12.472-0.75591h-16.252l-1.8898-0.75591h13.228l4.9134-0.75591h-8.315l-9.8268-0.75591h5.6693l12.472-0.75591h-16.252l-1.8898-0.75591h13.228l4.9134-0.75591h-8.315l-9.8268-0.75591h5.6693l12.472-0.75591h-16.252l-1.8898-0.75591h13.228l4.9134-0.75591h-8.315l-9.8268-0.75591h5.6693l12.472-0.75591h-16.252l-1.8898-0.75591h13.228l4.9134-0.75591h-8.315l-9.8268-0.75591h5.6693l12.472-0.75591h-16.252l-1.8898-0.75591h13.228l4.9134-0.75591h-8.315l-9.8268-0.75591h5.6693l12.472-0.75591h-16.252l-1.8898-0.75591h13.228l4.9134-0.75591h-8.315l-9.8268-0.75591h5.6693l12.472-0.75591h-16.252l-1.8898-0.75591h13.228l4.9134-0.75591h-8.315l-9.8268-0.75591h5.6693l12.472-0.75591h-16.252l-1.8898-0.75591h13.228l4.9134-0.75591h-8.315l-9.8268-0.75591h5.6693l12.472-0.75591h-16.252l-1.8898-0.75591h13.228l4.9134-0.75591h-8.315l-9.8268-0.75591h5.6693l12.472-0.75591h-16.252l-1.8898-0.75591h13.228l4.9134-0.75591h-8.315l-9.8268-0.75591h5.6693l12.472-0.75591h-16.252l-1.8898-0.75591h13.228l4.9134-0.75591h-8.315l-9.8268-0.75591h5.6693l12.472-0.75591h-16.252l-1.8898-0.75591h13.228l4.9134-0.75591h-8.315l-9.8268-0.75591h5.6693l12.472-0.75591h-16.252l-1.8898-0.75591h13.228l4.9134-0.75591h-8.315l-9.8268-0.75591h5.6693l12.472-0.75591h-16.252l-1.8898-0.75591h13.228l4.9134-0.75591h-8.315l-9.8268-0.75591h5.6693l12.472-0.75591h-16.252l-1.8898-0.75591h13.228l5.6693-0.75591h-9.0709l-9.8268-0.75591h5.6693 13.228l-7.937-5.6693 8.315-0.37795h9.0709 8.6929 8.315 8.6929l8.315-3.4016 1.8898-4.9134h-9.0709-15.118-15.118-15.118l-9.8268 0.75591h13.228 15.118 15.118 15.118l11.717 0.75591h-7.937-15.118-15.118-15.118-15.118l-1.8898 0.75591h5.6693 15.118 15.118 15.118 15.118l8.315 0.75591h-4.1575-15.118-15.118-15.118-15.118l-9.8268 0.75591h13.228 15.118 15.118 15.118 15.118l4.1575 0.75591h-15.496-15.118-15.118-15.118-15.118l-1.8898 0.75591h5.6693 15.118 15.118 15.118 15.118l14.362 0.75591h-10.205-15.118-15.118-15.118-15.118l-9.8268 0.75591h13.228 15.118 15.118 15.118 15.118l9.4488 0.75591h-5.6693-15.118-15.118-15.118-15.118-15.118l-1.8898 0.75591h5.6693 15.118 15.118 15.118 15.118 15.118l3.7795 0.75591h-14.74-15.118-15.118-15.118-15.118l-9.8268 0.75591h13.228 15.118 15.118 15.118 15.118l13.606 0.75591h-9.8268-15.118-15.118-15.118-15.118-15.118l-1.8898 0.75591h5.6693 15.118 15.118 15.118 15.118 15.118l7.937 0.75591h-3.7795-15.118-15.118-15.118-15.118-15.118l-9.8268 0.75591h13.228 15.118 15.118 15.118 15.118 15.118l1.8898 0.75591h-13.228-15.118-15.118-15.118-15.118-15.118l-1.8898 0.75591h5.6693 15.118 15.118 15.118 15.118 15.118l10.961 0.75591h-6.8031-15.118-30.236-15.118-15.118-9.8268 13.606l30.236 0.75591h10.583 4.1575 15.118 15.118l4.9134 0.75591h-16.252-22.299l6.8031 0.75591h4.1575 15.118l13.984 0.75591h-9.8268-15.118l-3.4016 0.75591h6.8031 15.118l7.5591 0.75591h-3.7795-15.118l-7.1811 0.75591h10.961l16.252 0.75591h-12.094l-12.472 0.75591h15.874l9.8268 0.75591h-6.0472-15.118l-2.2677 0.75591h6.0472 15.118l3.4016 0.75591h-14.362l-8.315 0.75591h11.717l12.094 0.75591h-8.315l-13.606 0.75591h2.2677 15.118l5.2913 0.75591h-16.252l-4.9134 0.75591h8.315l13.606 0.75591h-9.8268l-10.961 0.75591h14.74l6.8031 0.75591h-2.6457-15.118l-2.2677 0.75591h5.6693l15.118 0.75591h-11.339l-8.315 0.75591h12.094l7.937 0.75591h-3.7795l-15.496 0.75591h3.7795l16.252 0.75591h-12.472l-6.8031 0.75591h10.583l9.0709 0.75591h-4.9134l-13.984 0.75591h2.2677 15.118l2.2677 0.75591h-13.606l-5.2913 0.75591h9.0709l10.205 0.75591h-6.0472l-12.472 0.75591h15.874l3.0236 0.75591h-14.362l-4.1575 0.75591h7.937l10.961 0.75591h-6.8031l-11.339 0.75591h14.74l3.4016 0.75591h-14.74l-3.4016 0.75591h7.1811l11.339 0.75591h-7.1811l-10.961 0.75591h14.362l4.1575 0.75591h-15.496l-2.6457 0.75591h6.4252l11.717 0.75591h-7.5591l-10.205 0.75591h13.606l4.1575 0.75591h-15.496l-2.2677 0.75591h6.0472l11.717 0.75591h-7.5591l-10.205 0.75591h13.606l4.5354 0.75591h-15.874l-2.2677 0.75591h6.0472l12.094 0.75591h-7.937l-10.205 0.75591h13.606l4.5354 0.75591h-15.874l-2.2677 0.75591h6.0472l12.094 0.75591h-7.937l-10.205 0.75591h13.606l4.5354 0.75591h-15.874l-2.2677 0.75591h6.0472l12.094 0.75591h-7.937l-10.205 0.75591h13.606l4.5354 0.75591h-15.874l-2.2677 0.75591h6.0472l12.094 0.75591h-7.937l-10.205 0.75591h13.606l4.5354 0.75591h-15.874l-2.2677 0.75591h6.0472l12.094 0.75591h-7.937l-10.205 0.75591h13.606l4.5354 0.75591h-15.874l-2.2677 0.75591h6.0472l12.094 0.75591h-7.937l-10.205 0.75591h13.606l4.5354 0.75591h-15.874l-2.2677 0.75591h6.0472l12.094 0.75591h-7.937l-10.205 0.75591h13.606l4.5354 0.75591h-15.874l-2.2677 0.75591h6.0472l12.094 0.75591h-7.937l-10.205 0.75591h13.606l4.5354 0.75591h-15.874l-2.2677 0.75591h6.0472l12.094 0.75591h-7.937l-10.205 0.75591h13.606l4.5354 0.75591h-15.874l-2.2677 0.75591h6.0472l12.094 0.75591h-7.937l-10.205 0.75591h13.606l4.5354 0.75591h-15.874l-2.2677 0.75591h6.0472l12.094 0.75591h-7.937l-10.205 0.75591h13.606l4.5354 0.75591h-15.874l-2.2677 0.75591h6.0472l12.094 0.75591h-7.937l-10.205 0.75591h13.606l4.5354 0.75591h-15.874l-2.2677 0.75591h6.0472l12.094 0.75591h-7.937l-10.205 0.75591h13.606l4.5354 0.75591h-15.874l-2.2677 0.75591h6.0472l12.094 0.75591h-7.937l-10.205 0.75591h13.606l4.5354 0.75591h-15.874l-2.2677 0.75591h6.0472l12.094 0.75591h-7.937l-10.205 0.75591h13.606l4.5354 0.75591h-15.874l-2.2677 0.75591h6.0472l12.094 0.75591h-7.937l-10.205 0.75591h13.606l4.5354 0.75591h-15.874l-2.2677 0.75591h6.0472l12.094 0.75591h-7.937l-10.205 0.75591h13.606l4.5354 0.75591h-15.874l-2.2677 0.75591h6.0472l12.094 0.75591h-7.937l-10.205 0.75591h13.606l4.5354 0.75591h-15.874l-2.2677 0.75591h6.0472l12.094 0.75591h-7.937l-10.205 0.75591h13.606l4.5354 0.75591h-15.874l-2.2677 0.75591h6.0472l12.094 0.75591h-7.937l-10.205 0.75591h13.606l4.5354 0.75591h-15.874l-2.2677 0.75591h6.0472l12.094 0.75591h-7.937l-10.205 0.75591h13.606l4.5354 0.75591h-15.874l-2.2677 0.75591h6.0472l12.094 0.75591h-7.937l-10.205 0.75591h13.606l4.5354 0.75591h-15.874l-2.2677 0.75591h6.0472l12.094 0.75591h-7.937l-10.205 0.75591h13.606l4.5354 0.75591h-15.874l-2.2677 0.75591h6.0472l12.094 0.75591h-7.937l-10.205 0.75591h13.606l4.5354 0.75591h-15.874l-2.2677 0.75591h6.0472l12.094 0.75591h-7.937l-10.205 0.75591h13.606l4.5354 0.75591h-15.874l-2.2677 0.75591h6.0472l11.717 0.75591h-7.5591l-10.205 0.75591h13.606l4.1575 0.75591h-15.496l-2.2677 0.75591h6.0472l11.717 0.75591h-7.5591l-10.205 0.75591h13.606l4.1575 0.75591h-15.496l-2.2677 0.75591h6.0472l11.339 0.75591h-7.1811l-10.205 0.75591h13.606l3.4016 0.75591h-14.74l-2.2677 0.75591h6.0472l10.961 0.75591h-6.8031l-10.205 0.75591h13.606l3.0236 0.75591h-14.362l-2.2677 0.75591h6.0472l10.205 0.75591h-6.0472l-10.583 0.75591h13.984l2.2677 0.75591h-13.606l-2.6457 0.75591h6.4252l9.4488 0.75591h-5.2913l-10.961 0.75591 15.874 0.75591h-12.85l-3.0236 0.75591h6.8031l8.315 0.75591h-4.1575l-11.339 0.75591 15.118 0.75591h-11.717l-3.7795 0.75591h7.5591l7.1811 0.75591h-3.0236l-12.094 0.75591 14.74 0.75591h-10.583l-4.5354 0.75591h8.315l6.0472 0.75591-14.74 0.75591 13.984 0.75591h-9.0709l-5.6693 0.75591h9.4488l4.5354 0.75591-14.362 0.75591h2.2677l11.339 0.75591h-7.5591l-6.8031 0.75591h10.583l2.6457 0.75591-13.606 0.75591h3.4016l9.4488 0.75591h-5.6693l-7.937 0.75591 12.472 0.75591-13.228 0.75591h4.9134l7.5591 0.75591h-3.7795l-9.8268 0.75591 12.094 0.75591h-9.4488l-3.4016 0.75591h6.8031l4.9134 0.75591-12.85 0.75591 11.717 0.75591h-7.1811l-5.2913 0.75591h8.6929l2.2677 0.75591-12.094 0.75591h2.2677l8.6929 0.75591h-4.5354l-7.5591 0.75591 10.583 0.75591-11.717 0.75591h4.5354l5.6693 0.75591-11.717 0.75591 9.8268 0.75591h-7.5591l-3.7795 0.75591h7.5591l2.2677 0.75591-11.339 0.75591 9.0709 0.75591h-3.7795l-6.8031 0.75591 8.315 0.75591-10.205 0.75591h4.9134l3.0236 0.75591-9.8268 0.75591 7.1811 0.75591h-3.7795l-5.6693 0.75591 6.4252 0.75591-8.6929 0.75591 4.9134 0.75591-7.5591 0.75591 3.0236 0.75591h-4.5354 4.5354-4.5354 4.5354-4.5354 4.5354-4.5354" fill="none" stroke="#000" stroke-width=".4" inkstitch:manual_stitch="true"/>
  </g>
  <g id="__color_block_3__">
   <path transform="" d="m152.69 91.465h4.5354-4.5354 4.5354-4.5354 4.5354-4.5354 6.0472l6.8031-1.5118 6.8031-2.6457 6.4252-3.4016 6.0472-4.5354 4.5354-4.5354 3.7795-4.9134 3.7795-6.0472 2.2677-5.6693 1.8898-7.1811 0.75591-7.5591 0.37795-6.8031v-7.1811-7.937-7.5591-7.1811-7.5591l-0.37795-7.5591v-7.5591l0.37795-7.5591v-7.1811-7.5591l-0.37795-6.8031-1.1339-6.8031-3.0236-6.0472-4.1575-4.9134-6.4252-4.1575-5.6693-2.6457-7.1811-0.75591-7.1811-0.37795h-6.4252-6.4252-7.1811l-0.75591 7.1811 6.0472 0.75591 6.8031 0.37795h7.1811l6.8031 1.5118 5.6693 2.6457 6.0472 4.5354 4.1575 5.6693 3.4016 5.6693 1.1339 6.0472 0.37795 7.1811v6.4252 6.4252 6.4252l0.37795 6.8031v6.4252 6.4252l-0.37795 6.8031v6.4252 6.4252 6.4252 7.1811l-0.37795 7.1811-1.8898 6.4252-3.4016 6.4252-3.7795 5.6693-4.5354 5.2913-5.6693 3.7795-6.4252 3.0236-6.0472 1.8898-6.8031 0.75591-7.5591 0.37795h-6.4252-6.4252l-6.8031-0.37795h-6.4252l-8.315-1.5118-1.1339-6.4252-0.37795-6.8031v-6.4252l0.37795-6.8031v-6.4252l-0.37795-6.4252v-6.8031-6.4252l0.37795-6.8031-0.37795-6.8031v-6.4252-6.4252l0.37795-6.4252-0.37795-6.8031v-6.8031-6.4252-6.8031-6.4252-6.4252-6.8031-6.4252-7.1811-6.4252-6.4252-2.6457l-6.8031 3.0236-1.1339 7.5591v6.4252 6.4252 6.4252l0.37795 6.8031-0.37795 6.8031v6.4252 6.4252 6.8031 6.4252 6.8031 6.4252 6.4252l-0.37795 6.8031 0.37795 6.8031v6.8031 6.4252 6.4252 6.8031 6.4252 6.4252 6.8031 6.8031 6.4252l-0.37795 6.8031 6.8031 1.5118h6.4252l6.4252 0.37795h6.4252 6.8031 6.4252 6.4252l4.5354-0.75591 0.37795-3.4016 8.6929-1.1339 7.1811-1.8898 7.5591-4.5354 6.8031-4.5354 5.6693-6.8031 3.7795-7.937 3.4016-8.315 1.1339-8.315v-8.6929-9.4488l-0.37795-9.4488 0.37795-9.4488v-8.315l-0.37795-8.6929 0.37795-9.4488-0.37795-8.315v-8.6929l-1.5118-9.0709-3.7795-8.315-6.0472-6.0472-8.315-4.5354-8.6929-1.8898h-4.9134l-0.37795-6.4252-6.0472 7.1811-3.7795 4.9134 0.37795-2.2677 6.4252-6.0472 7.1811 4.5354 8.315 5.2913-0.37795 1.5118 6.0472-7.1811 11.339 1.5118 6.8031 6.0472-6.0472 7.5591-4.9134 6.0472 1.8898-0.37795 2.2677 8.315 0.37795 9.4488-1.5118 8.315 6.0472-7.1811 5.6693-6.8031v9.4488 9.4488 10.205l-6.0472 7.5591-6.0472 6.8031 0.37795 9.4488v9.4488 10.205l6.0472-7.1811 5.6693-6.8031-6.0472 7.1811v9.4488l-1.1339 7.937 3.0236 8.6929-5.6693 7.5591-6.0472 7.5591-6.0472 7.1811-3.4016 4.1575-9.4488 2.2677-9.0709 2.2677-9.0709 1.8898-3.0236 0.75591 6.0472-7.1811 4.1575-5.2913-9.4488 0.37795h-9.4488-6.0472l-6.0472 7.1811-3.7795 4.9134-9.4488-1.5118-9.0709-1.1339-3.7795-0.75591 12.094-14.362v-9.4488-9.4488l0.37795-10.583-6.0472 7.1811-6.0472 6.8031v-9.0709-9.4488-10.583l6.0472-7.1811 5.6693-6.8031v-9.4488-9.4488-10.583l-6.0472 7.1811-5.6693 6.8031v-9.4488-9.4488-10.205l6.0472-7.1811 5.6693-7.1811v-9.4488-9.4488l0.37795-10.583-6.4252 7.1811-6.0472 7.1811 6.0472 6.0472 0.75591 9.0709v9.4488l-0.75591 10.205 0.75591 9.0709v8.315 8.6929 9.0709l-0.37795 8.6929 0.37795 8.315-0.37795 9.4488 0.37795 9.4488-0.75591 9.4488 0.75591 8.315-0.75591 9.0709 1.1339 8.315 8.315 3.4016 8.6929 0.37795h8.6929 9.0709 8.6929l8.315-1.1339 8.6929-1.8898 7.5591-3.7795 6.8031-5.6693 6.0472-7.1811 4.1575-7.1811 3.0236-8.6929 0.75591-8.315 0.37795-9.4488-0.37795-9.4488 0.37795-8.315v-8.315-9.4488-8.6929-9.0709l-0.37795-9.4488v-9.4488l-1.1339-8.6929-3.7795-8.6929-6.4252-5.2913-7.5591-4.5354-8.315-1.5118-9.4488-0.75591h-8.315l-3.0236 0.75591-1.5118-6.4252 6.0472 7.1811 4.1575 4.9134 7.1811-5.2913h9.0709l8.6929 2.6457 7.1811 6.0472 4.5354 6.8031 2.6457 9.0709 6.8031 6.0472-6.4252-7.1811-18.142-21.543-6.8031-8.6929 0.37795 2.2677 6.4252 6.0472 12.094 14.362 5.6693 7.1811 4.9134 7.937-2.6457 8.6929-6.8031 6.0472 5.2913 7.5591 6.0472 6.8031v9.4488 9.4488 10.583l-6.0472-7.1811-5.6693-6.8031v9.4488l-0.37795 9.0709v10.583l6.0472 7.1811 4.9134 6.0472-3.7795 8.315-3.7795 8.6929-0.75591 2.2677-6.0472-7.1811-1.8898-2.2677-2.6457 12.85-6.4252 5.2913-3.4016 1.8898-6.8031 6.4252-4.5354 4.1575-6.0472-7.1811-3.0236-3.7795h-9.0709-9.4488-6.0472l6.0472 7.5591 3.7795 4.5354-0.75591-6.8031-9.0709 0.37795h-8.315l-9.4488-0.37795-2.6457-0.37795-1.1339-8.6929-0.75591-9.0709 0.37795-8.6929-0.37795-8.315 0.37795-8.315-0.37795-9.4488v-8.6929-8.315-9.4488l0.37795-8.315-0.37795-9.4488 0.37795-8.315v-8.315-9.4488-8.6929l-0.37795-9.0709 6.4252-0.75591-6.0472-7.1811-5.6693-6.8031v9.4488 9.4488 10.205l6.0472 7.5591 5.6693 6.8031v9.4488 9.4488 10.583l-6.0472-7.1811-5.6693-6.8031v9.0709 9.4488 10.961l6.0472 7.1811 5.6693 6.4252v9.4488 9.4488 10.961l-6.0472-7.5591-5.6693-6.8031v9.4488 9.4488 10.583l6.0472 7.1811 6.8031 8.315-4.9134-7.1811-1.8898-8.6929-0.75591-9.0709v-8.6929-8.315-8.6929-9.0709-9.4488-9.0709-9.0709-9.0709-9.0709-9.0709-9.0709-9.0709-9.0709-9.4488-9.0709l1.5118-8.315 3.7795-9.8268 4.1575-7.937-2.2677 0.75591 2.2677 0.75591-3.7795 0.75591 3.7795 0.75591h-2.2677l-3.0236 0.75591 5.2913 0.75591-6.8031 0.75591 6.8031 0.75591h-2.2677l-6.0472 0.75591 8.315 0.75591-9.8268 0.75591h3.4016l6.4252 0.75591h-2.2677l-9.0709 0.75591 11.339 0.75591h-10.205l-2.6457 0.75591h6.4252l6.4252 0.75591h-2.2677l-12.094 0.75591 14.362 0.75591h-10.205l-5.6693 0.75591h9.4488l6.4252 0.75591h-2.2677l-15.118 0.75591h3.4016l13.984 0.75591h-10.205l-7.5591 0.75591h11.339l6.4252 0.75591h-2.2677l-15.496 0.75591h3.7795l13.984 0.75591h-10.205l-7.5591 0.75591h11.339l6.4252 0.75591h-2.2677l-15.496 0.75591h3.7795l13.984 0.75591h-10.205l-7.5591 0.75591h11.339l6.4252 0.75591h-2.2677l-15.496 0.75591h3.7795l13.984 0.75591h-10.205l-7.5591 0.75591h11.339l6.4252 0.75591h-2.2677l-15.496 0.75591h3.7795l13.984 0.75591h-10.205l-7.5591 0.75591h11.339l6.4252 0.75591h-2.2677l-15.496 0.75591h3.7795l13.984 0.75591h-10.205l-7.5591 0.75591h11.339l6.4252 0.75591h-2.2677l-15.496 0.75591h3.7795l13.984 0.75591h-10.205l-7.5591 0.75591h11.339l6.4252 0.75591h-2.2677l-15.496 0.75591h3.7795l13.984 0.75591h-10.205l-7.5591 0.75591h11.339l6.4252 0.75591h-2.2677l-15.496 0.75591h3.7795l13.984 0.75591h-10.205l-7.5591 0.75591h11.339l6.4252 0.75591h-2.2677l-15.496 0.75591h3.7795l13.984 0.75591h-10.205l-7.5591 0.75591h11.339l6.4252 0.75591h-2.2677l-15.496 0.75591h3.7795l13.984 0.75591h-10.205l-7.5591 0.75591h11.339l6.4252 0.75591h-2.2677l-15.496 0.75591h3.7795l13.984 0.75591h-10.205l-7.5591 0.75591h11.339l6.4252 0.75591h-2.2677l-15.496 0.75591h3.7795l13.984 0.75591h-10.205l-7.5591 0.75591h11.339l6.4252 0.75591h-2.2677l-15.496 0.75591h3.7795l13.984 0.75591h-10.205l-7.5591 0.75591h11.339l6.4252 0.75591h-2.2677l-15.496 0.75591h3.7795l13.984 0.75591h-10.205l-7.5591 0.75591h11.339l6.4252 0.75591h-2.2677l-15.496 0.75591h3.7795l13.984 0.75591h-10.205l-7.5591 0.75591h11.339l6.4252 0.75591h-2.2677l-15.496 0.75591h3.7795l13.984 0.75591h-10.205l-7.5591 0.75591h11.339l6.4252 0.75591h-2.2677l-15.496 0.75591h3.7795l13.984 0.75591h-10.205l-7.5591 0.75591h11.339l6.4252 0.75591h-2.2677l-15.496 0.75591h3.7795l13.984 0.75591h-10.205l-7.5591 0.75591h11.339l6.4252 0.75591h-2.2677l-15.496 0.75591h3.7795l13.984 0.75591h-10.205l-7.5591 0.75591h11.339l6.4252 0.75591h-2.2677l-15.496 0.75591h3.7795l13.984 0.75591h-10.205l-7.5591 0.75591h11.339l6.4252 0.75591h-2.2677l-15.496 0.75591h3.7795l13.984 0.75591h-10.205l-7.5591 0.75591h11.339l6.4252 0.75591h-2.2677l-15.496 0.75591h3.7795l13.984 0.75591h-10.205l-7.5591 0.75591h11.339l6.4252 0.75591h-2.2677l-15.496 0.75591h3.7795l13.984 0.75591h-10.205l-7.5591 0.75591h11.339l6.4252 0.75591h-2.2677l-15.496 0.75591h3.7795l13.984 0.75591h-10.205l-7.5591 0.75591h11.339l6.4252 0.75591h-2.2677l-15.496 0.75591h3.7795l13.984 0.75591h-10.205l-7.5591 0.75591h11.339l6.4252 0.75591h-2.2677l-15.496 0.75591h3.7795l13.984 0.75591h-10.205l-7.5591 0.75591h11.339l6.4252 0.75591h-2.2677l-15.496 0.75591h3.7795l13.984 0.75591h-10.205l-7.5591 0.75591h11.339l6.4252 0.75591h-2.2677l-15.496 0.75591h3.7795l13.984 0.75591h-10.205l-7.5591 0.75591h11.339l6.4252 0.75591h-2.2677l-15.496 0.75591h3.7795l13.984 0.75591h-10.205l-7.5591 0.75591h11.339l6.4252 0.75591h-2.2677l-15.496 0.75591h3.7795l13.984 0.75591h-10.205l-7.5591 0.75591h11.339l6.4252 0.75591h-2.2677l-15.496 0.75591h3.7795l13.984 0.75591h-10.205l-7.5591 0.75591h11.339l6.4252 0.75591h-2.2677l-15.496 0.75591h3.7795l13.984 0.75591h-10.205l-7.5591 0.75591h11.339l6.4252 0.75591h-2.2677l-15.496 0.75591h3.7795l13.984 0.75591h-10.205l-7.5591 0.75591h11.339l6.4252 0.75591h-2.2677l-15.496 0.75591h3.7795l13.984 0.75591h-10.205l-7.5591 0.75591h11.339l6.4252 0.75591h-2.2677l-15.496 0.75591h3.7795l13.984 0.75591h-10.205l-7.5591 0.75591h11.339l6.4252 0.75591h-2.2677l-15.496 0.75591h3.7795l13.984 0.75591h-10.205l-7.5591 0.75591h11.339l6.4252 0.75591h-2.2677l-15.496 0.75591h3.7795l13.984 0.75591h-10.205l-7.5591 0.75591h11.339l6.4252 0.75591h-2.2677l-15.496 0.75591h3.7795l13.984 0.75591h-10.205l-7.5591 0.75591h11.339l6.4252 0.75591h-2.2677l-15.496 0.75591h3.7795l13.984 0.75591h-10.205l-7.5591 0.75591h11.339l6.4252 0.75591h-2.2677l-15.496 0.75591h3.7795l13.984 0.75591h-10.205l-7.5591 0.75591h11.339l6.4252 0.75591h-2.2677l-15.496 0.75591h3.7795l13.984 0.75591h-10.205l-7.5591 0.75591h11.339l6.4252 0.75591h-2.2677l-15.496 0.75591h3.7795l13.984 0.75591h-10.205l-7.5591 0.75591h11.339l6.4252 0.75591h-2.2677l-15.496 0.75591h3.7795l13.984 0.75591h-10.205l-7.5591 0.75591h11.339l6.4252 0.75591h-2.2677l-15.496 0.75591h3.7795l13.984 0.75591h-10.205l-7.5591 0.75591h11.339l6.4252 0.75591h-2.2677l-15.496 0.75591h3.7795l13.984 0.75591h-10.205l-7.5591 0.75591h11.339l6.4252 0.75591h-2.2677l-15.496 0.75591h3.7795l13.984 0.75591h-10.205l-7.5591 0.75591h11.339l6.4252 0.75591h-2.2677l-15.496 0.75591h3.7795l13.984 0.75591h-10.205l-7.5591 0.75591h11.339l6.4252 0.75591h-2.2677l-15.496 0.75591h3.7795l13.984 0.75591h-10.205l-7.5591 0.75591h11.339l6.4252 0.75591h-2.2677l-15.496 0.75591h3.7795l13.984 0.75591h-10.205l-7.5591 0.75591h11.339l6.4252 0.75591h-2.2677l-15.496 0.75591h3.7795l13.984 0.75591h-10.205l-7.5591 0.75591h11.339l6.4252 0.75591h-2.2677l-15.496 0.75591h3.7795l13.984 0.75591h-10.205l-7.5591 0.75591h11.339l6.8031 0.75591h-2.6457l-15.496 0.75591h3.7795 14.362l0.37795 7.5591h8.6929 8.6929 8.315 8.6929l8.6929-1.5118 8.315-1.8898 8.315-4.1575 6.8031-5.6693 5.6693-6.0472 4.5354-7.937 2.6457-7.5591 1.8898-8.6929v-9.0709-9.4488-9.4488-9.0709-9.0709-9.0709-9.0709-9.0709l-0.37795-8.6929-1.5118-8.6929-3.7795-7.5591-6.4252-6.8031-6.8031-6.0472 1.8898-7.937h-6.8031-15.118-15.118l-4.1575 0.75591h7.5591 15.118 15.118l7.937 0.75591h-4.1575-15.118-15.118l-11.339 0.75591h15.118 15.118 15.118l3.7795 0.75591h-14.74-15.118-15.118l-4.1575 0.75591h7.5591 15.118 15.118l13.984 0.75591h-10.205-15.118-15.118l-11.339 0.75591h15.118 15.118 15.118l8.6929 0.75591h-4.5354-15.118-15.118-15.118l-4.1575 0.75591h7.5591 15.118 15.118 15.118l2.6457 0.75591h-13.984-15.118-15.118l-11.339 0.75591h15.118 15.118 15.118l12.094 0.75591h-7.937-15.118-15.118-15.118l-4.1575 0.75591h7.5591 15.118 15.118 15.118l6.0472 0.75591h-2.2677-15.118-15.118-15.118l-11.339 0.75591h15.118 15.118 15.118l14.74 0.75591h-10.583-15.118-15.118-15.118l-4.1575 0.75591h7.5591 15.118 15.118 15.118l8.315 0.75591h-4.5354-15.118-15.118-15.118l-11.339 0.75591h15.118 15.118 15.118l16.63 0.75591h-12.472-15.118-15.118-15.118l-4.1575 0.75591h7.5591 15.118 15.118 15.118l10.205 0.75591h-6.4252-15.118-15.118-15.118-11.339l15.496 0.37795 12.85 0.37795h17.008 15.118l3.4016 0.75591h-14.362l-16.63 0.75591h4.9134 15.118l11.339 0.75591h-7.5591-15.118l-5.2913 0.75591h9.0709 15.118l4.5354 0.75591h-15.496l-10.961 0.75591h14.362l12.472 0.75591h-8.6929l-16.63 0.75591h5.2913 15.118l5.2913 0.75591h-16.252l-7.5591 0.75591h10.961l13.228 0.75591h-9.4488l-13.606 0.75591h2.2677 15.118l6.0472 0.75591h-17.008l-5.2913 0.75591h8.6929l13.606 0.75591h-9.8268l-11.339 0.75591h15.118l6.4252 0.75591h-2.2677-15.118l-3.4016 0.75591h6.8031l13.984 0.75591h-10.205l-9.8268 0.75591h13.606l6.4252 0.75591h-2.2677-15.118l-2.2677 0.75591h5.6693l13.984 0.75591h-10.205l-8.6929 0.75591h12.472l6.4252 0.75591h-2.2677l-16.252 0.75591h4.5354l13.984 0.75591h-10.205l-8.315 0.75591h12.094l6.4252 0.75591h-2.2677l-15.874 0.75591h4.1575l13.984 0.75591h-10.205l-7.937 0.75591h11.717l6.4252 0.75591h-2.2677l-15.874 0.75591h4.1575l13.984 0.75591h-10.205l-7.937 0.75591h11.717l6.4252 0.75591h-2.2677l-15.874 0.75591h4.1575l13.984 0.75591h-10.205l-7.937 0.75591h11.717l6.4252 0.75591h-2.2677l-15.874 0.75591h4.1575l13.984 0.75591h-10.205l-7.937 0.75591h11.717l6.4252 0.75591h-2.2677l-15.874 0.75591h4.1575l13.984 0.75591h-10.205l-7.937 0.75591h11.717l6.4252 0.75591h-2.2677l-15.874 0.75591h4.1575l13.984 0.75591h-10.205l-7.937 0.75591h11.717l6.4252 0.75591h-2.2677l-15.874 0.75591h4.1575l13.984 0.75591h-10.205l-7.937 0.75591h11.717l6.4252 0.75591h-2.2677l-15.874 0.75591h4.1575l13.984 0.75591h-10.205l-7.937 0.75591h11.717l6.4252 0.75591h-2.2677l-15.874 0.75591h4.1575l13.984 0.75591h-10.205l-7.937 0.75591h11.717l6.4252 0.75591h-2.2677l-15.874 0.75591h4.1575l13.984 0.75591h-10.205l-7.937 0.75591h11.717l6.4252 0.75591h-2.2677l-15.874 0.75591h4.1575l13.984 0.75591h-10.205l-7.937 0.75591h11.717l6.4252 0.75591h-2.2677l-15.874 0.75591h4.1575l13.984 0.75591h-10.205l-7.937 0.75591h11.717l6.4252 0.75591h-2.2677l-15.874 0.75591h4.1575l13.984 0.75591h-10.205l-7.937 0.75591h11.717l6.4252 0.75591h-2.2677l-15.874 0.75591h4.1575l13.984 0.75591h-10.205l-7.937 0.75591h11.717l6.4252 0.75591h-2.2677l-15.874 0.75591h4.1575l13.984 0.75591h-10.205l-7.937 0.75591h11.717l6.4252 0.75591h-2.2677l-15.874 0.75591h4.1575l13.984 0.75591h-10.205l-7.937 0.75591h11.717l6.4252 0.75591h-2.2677l-15.874 0.75591h4.1575l13.984 0.75591h-10.205l-7.937 0.75591h11.717l6.4252 0.75591h-2.2677l-15.874 0.75591h4.1575l13.984 0.75591h-10.205l-7.937 0.75591h11.717l6.4252 0.75591h-2.2677l-15.874 0.75591h4.1575l13.984 0.75591h-10.205l-7.937 0.75591h11.717l6.4252 0.75591h-2.2677l-15.874 0.75591h4.1575l13.984 0.75591h-10.205l-7.937 0.75591h11.717l6.4252 0.75591h-2.2677l-15.874 0.75591h4.1575l13.984 0.75591h-10.205l-7.937 0.75591h11.717l6.4252 0.75591h-2.2677l-15.874 0.75591h4.1575l13.984 0.75591h-10.205l-7.937 0.75591h11.717l6.4252 0.75591h-2.2677l-15.874 0.75591h4.1575l13.984 0.75591h-10.205l-7.937 0.75591h11.717l6.4252 0.75591h-2.2677l-15.874 0.75591h4.1575l13.984 0.75591h-10.205l-7.937 0.75591h11.717l6.4252 0.75591h-2.2677l-15.874 0.75591h4.1575l13.984 0.75591h-10.205l-7.937 0.75591h11.717l6.4252 0.75591h-2.2677l-15.874 0.75591h4.1575l13.984 0.75591h-10.205l-7.937 0.75591h11.717l6.4252 0.75591h-2.2677l-15.874 0.75591h4.1575l13.606 0.75591h-9.8268l-7.937 0.75591h11.717l6.0472 0.75591-17.764 0.75591h4.1575l13.606 0.75591h-9.8268l-8.315 0.75591h12.094l5.6693 0.75591-18.142 0.75591h4.9134l12.85 0.75591h-9.0709l-9.0709 0.75591h12.85l5.2913 0.75591h-16.252l-2.2677 0.75591h5.6693l12.472 0.75591h-8.6929l-9.8268 0.75591h13.606l4.5354 0.75591h-15.496l-3.4016 0.75591h6.8031l11.717 0.75591h-7.937l-10.961 0.75591h14.74l3.4016 0.75591h-14.362l-4.5354 0.75591h7.937l10.583 0.75591h-6.8031l-12.85 0.75591h16.63l2.6457 0.75591h-13.606l-6.4252 0.75591h9.8268l9.4488 0.75591h-5.6693l-14.74 0.75591h3.4016l16.252 0.75591h-12.094l-8.6929 0.75591h12.094l7.937 0.75591h-4.1575-15.118l-1.8898 0.75591h5.6693l14.74 0.75591h-10.583l-11.339 0.75591h14.74l6.4252 0.75591h-2.6457-15.118l-4.9134 0.75591h8.6929l12.85 0.75591h-8.6929l-14.74 0.75591h3.0236 15.118l4.5354 0.75591h-15.874l-9.0709 0.75591h12.85l10.961 0.75591h-6.8031-15.118l-4.5354 0.75591h7.937 15.118l2.2677 0.75591h-13.606l-14.74 0.75591h3.4016 15.118l8.6929 0.75591h-4.5354-15.118l-11.717 0.75591h15.118l14.74 0.75591h-10.961-15.118l-9.4488 0.75591h13.228 15.118l6.0472 0.75591h-17.008-15.118-15.118-15.118-15.118l-15.496 0.75591h3.7795 15.118 15.118 15.118 15.118 15.118l12.094 0.75591h-8.315-15.118-15.118-15.118-15.118-15.118l-7.5591 0.75591h11.339 15.118 15.118 15.118 15.118 15.118l3.0236 0.75591h-13.984-15.118-15.118-15.118-15.118l-15.496 0.75591h3.7795 15.118 15.118 15.118 15.118 15.118l8.6929 0.75591h-4.9134-15.118-15.118-15.118-15.118-15.118l-7.5591 0.75591h11.339 15.118 15.118 15.118 15.118l14.362 0.75591h-10.205-15.118-15.118-15.118-15.118l-15.496 0.75591h3.7795 15.118 15.118 15.118 15.118 15.118l4.5354 0.75591h-15.874-15.118-15.118-15.118-15.118l-7.5591 0.75591h11.339 15.118 15.118 15.118 15.118l10.205 0.75591h-6.0472-15.118-15.118-15.118-15.118l-15.496 0.75591h3.7795 15.118 15.118 15.118 15.118l15.118 0.75591h-11.339-15.118-15.118-15.118-15.118l-7.5591 0.75591h11.339 15.118 15.118 15.118 15.118l4.5354 0.75591h-15.496-15.118-15.118-15.118l-15.496 0.75591h3.7795 15.118 15.118 15.118 15.118l8.315 0.75591h-4.5354-15.118-15.118-15.118-15.118l-7.5591 0.75591h11.339 15.118 15.118 15.118l10.583 0.75591h-6.4252-15.118-15.118-15.118l-15.496 0.75591h3.7795 15.118 15.118 15.118 14.362-4.5354-4.5354 4.5354 4.5354-4.5354 4.5354" fill="none" stroke="#A7DDC4" stroke-width=".4" inkstitch:manual_stitch="true"/>
  </g>
  <g id="__color_block_4__">
   <path transform="" d="m320.5 44.976v1.5118-1.5118 1.5118-1.5118 1.5118-1.5118l0.75591-7.1811 0.37795-6.8031 1.5118-6.0472 2.6457-7.1811-1.8898-7.1811-2.2677-6.4252-1.5118-6.4252-1.8898-6.0472-1.5118-6.0472-1.5118-7.1811-1.8898-5.6693-1.5118-6.8031-1.5118-6.4252-1.8898-6.4252-1.8898-6.0472-3.0236-12.85-1.8898-6.4252-1.8898-6.0472-1.8898-6.4252-1.1339-8.315-6.8031 0.75591-0.37795 7.5591 1.8898 6.8031 1.5118 6.8031 1.8898 7.1811 1.8898 6.8031 1.8898 7.1811 1.8898 6.8031 1.8898 7.1811 1.8898 6.8031 1.8898 7.1811 2.2677 6.8031 1.5118 7.1811 5.6693 20.409 1.8898 7.1811 1.8898 7.5591 1.8898 6.8031-0.37795 7.1811-0.37795 1.5118v-9.4488l0.37795-9.4488v-9.0709l-2.6457-8.6929-2.2677-9.0709-2.2677-8.6929-2.2677-7.937-1.8898-7.937-2.6457-8.6929-2.6457-7.937-1.8898-8.6929-2.6457-7.937-1.5118-8.6929-2.6457-8.315-3.0236-9.8268 5.6693-6.4252 1.8898-1.8898h-5.6693l-12.85 0.75591h16.252l2.6457 0.75591h-13.984l-4.5354 0.75591h8.315l10.583 0.75591h-6.4252l-12.094 0.75591h15.496l3.4016 0.75591h-14.74l-3.7795 0.75591h7.5591l11.339 0.75591h-7.1811l-11.339 0.75591h14.74l4.5354 0.75591h-15.874l-3.0236 0.75591h6.8031l12.472 0.75591h-8.315l-10.583 0.75591h13.984l5.2913 0.75591h-16.63l-2.2677 0.75591h6.0472l13.228 0.75591h-9.0709l-9.8268 0.75591h13.228l6.0472 0.75591h-2.2677l-16.252 0.75591h4.9134l13.984 0.75591h-9.8268l-8.6929 0.75591h12.094l6.8031 0.75591h-3.0236l-15.496 0.75591h4.1575l14.74 0.75591h-10.583l-7.937 0.75591h11.339l7.5591 0.75591h-3.7795l-14.74 0.75591h3.4016l15.496 0.75591h-11.339l-7.1811 0.75591h10.583l8.315 0.75591h-4.5354l-13.984 0.75591h2.6457l16.252 0.75591h-12.094l-6.4252 0.75591h9.8268l9.0709 0.75591h-5.2913l-13.228 0.75591h17.008l1.8898 0.75591h-12.85l-5.6693 0.75591h9.0709l9.8268 0.75591h-6.0472l-12.472 0.75591h16.252l3.0236 0.75591h-13.984l-4.9134 0.75591h8.315l10.961 0.75591h-7.1811l-11.717 0.75591h15.496l3.7795 0.75591h-14.74l-4.1575 0.75591h7.5591l11.717 0.75591h-7.937l-10.961 0.75591h14.74l4.5354 0.75591h-15.496l-3.0236 0.75591h6.4252l12.472 0.75591h-8.6929l-9.8268 0.75591h13.606l5.2913 0.75591h-16.252l-2.2677 0.75591h5.6693l13.228 0.75591h-9.4488l-9.0709 0.75591h12.85l6.0472 0.75591-18.52 0.75591h4.9134l13.984 0.75591h-10.205l-8.315 0.75591h12.094l6.8031 0.75591h-2.6457l-15.874 0.75591h4.1575l14.74 0.75591h-10.961l-7.5591 0.75591h11.339l7.5591 0.75591h-3.4016l-15.118 0.75591h3.4016l15.496 0.75591h-11.717l-6.8031 0.75591h10.583l8.315 0.75591h-4.1575l-14.362 0.75591h2.6457l16.63 0.75591h-12.85l-6.0472 0.75591h9.8268l9.4488 0.75591h-5.2913l-13.606 0.75591h17.008l2.2677 0.75591h-13.606l-4.9134 0.75591h8.6929l10.205 0.75591h-6.0472l-12.472 0.75591h15.874l3.0236 0.75591h-14.362l-4.1575 0.75591h7.937l10.961 0.75591h-6.8031l-11.717 0.75591h15.118l3.7795 0.75591h-15.118l-3.4016 0.75591h7.1811l11.717 0.75591h-7.5591l-10.961 0.75591h14.362l4.5354 0.75591h-15.874l-2.6457 0.75591h6.4252l12.472 0.75591h-8.315l-10.205 0.75591h13.606l5.2913 0.75591h-16.63l-1.8898 0.75591h5.6693l13.228 0.75591h-9.0709l-9.4488 0.75591h12.85l6.0472 0.75591h-2.2677l-16.252 0.75591h4.9134l13.984 0.75591h-9.8268l-8.6929 0.75591h12.094l6.8031 0.75591h-3.0236l-15.496 0.75591h4.1575l15.118 0.75591h-10.961l-7.937 0.75591h11.339l7.937 0.75591h-4.1575l-14.362 0.75591h3.0236l15.874 0.75591h-11.717l-6.8031 0.75591h10.205l8.6929 0.75591h-4.9134l-13.606 0.75591h2.2677l16.63 0.75591h-12.472l-6.0472 0.75591h9.4488l9.4488 0.75591h-5.6693l-12.85 0.75591h16.63l2.2677 0.75591h-13.228l-5.2913 0.75591h8.6929l10.205 0.75591h-6.4252l-12.094 0.75591h15.874l3.0236 0.75591h-13.984l-4.5354 0.75591h7.937l10.961 0.75591h-7.1811l-11.339 0.75591h15.118l3.7795 0.75591h-14.74l-3.7795 0.75591h7.1811l11.717 0.75591h-7.937l-10.583 0.75591h14.362l4.5354 0.75591h-15.496l-3.0236 0.75591h6.4252l12.472 0.75591h-8.6929l-9.8268 0.75591h13.606l5.6693 0.75591h-16.63l-2.2677 0.75591h5.6693l13.606 0.75591h-9.8268l-9.0709 0.75591h12.85l6.4252 0.75591h-2.2677l-16.252 0.75591h4.5354l14.362 0.75591h-10.583l-7.937 0.75591h11.717l7.1811 0.75591h-3.0236l-15.496 0.75591h3.7795l15.118 0.75591h-11.339l-7.1811 0.75591h10.961l7.937 0.75591h-3.7795l-14.74 0.75591h3.0236l15.874 0.75591h-12.094l-6.4252 0.75591h10.205l8.6929 0.75591h-4.5354l-13.984 0.75591h2.2677l16.63 0.75591h-12.85l-5.6693 0.75591h9.4488l9.4488 0.75591h-5.2913l-13.228 0.75591h16.63l2.2677 0.75591h-13.606l-4.9134 0.75591h8.6929l9.4488 0.75591h-5.2913l-12.472 0.75591 17.386 0.75591h-12.85l-4.1575 0.75591h7.937l8.6929 0.75591h-4.5354l-11.717 0.75591 15.874 0.75591h-12.094l-3.4016 0.75591h7.1811l7.937 0.75591h-3.7795l-10.583 0.75591 13.984 0.75591h-11.339l-2.2677 0.75591h6.0472l7.1811 0.75591h-3.0236l-9.8268 0.75591 12.472 0.75591-12.094 0.75591h5.2913l6.4252 0.75591h-2.2677l-9.0709 0.75591 10.961 0.75591-10.583 0.75591h4.5354l5.2913 0.75591-9.4488 0.75591 9.0709 0.75591-8.6929 0.75591h3.7795l4.5354 0.75591-7.937 0.75591 7.5591 0.75591-7.1811 0.75591h3.0236l3.7795 0.75591-6.4252 0.75591 6.0472 0.75591-5.6693 0.75591h2.2677l3.0236 0.75591-4.9134 0.75591 4.5354 0.75591-3.7795 0.75591 3.4016 0.75591-3.0236 0.75591 2.2677 0.75591-1.8898 0.75591 1.5118 0.75591-1.5118-0.75591 1.5118 0.75591-1.5118-0.75591 1.5118 0.75591-1.5118-0.75591 1.5118 0.75591" fill="none" stroke="#000" stroke-width=".4" inkstitch:manual_stitch="true"/>
   <g transform="">
    <path d="m294.43-125.96 3.376 29.964" fill="none" stroke="#000" stroke-opacity=".5" stroke-width="1px"/>
    <use x="294.4251968503937" y="-126.00000000000001" width="100%" height="100%" xlink:href="#inkstitch_trim"/>
   </g>
   <path transform="" d="m388.54-93.354-0.37795 4.5354 0.37795-4.5354-0.37795 4.5354 0.37795-4.5354-0.37795 4.5354 0.37795-4.5354-0.75591 6.4252-1.5118 6.4252-1.5118 6.8031-1.8898 6.8031-1.8898 6.4252-1.8898 6.8031-1.5118 6.0472-1.8898 6.0472-1.8898 7.1811-1.5118 6.8031-1.8898 6.0472-1.5118 6.0472-1.5118 6.4252-1.8898 6.4252-1.5118 6.0472-1.5118 6.4252-2.2677 7.1811-1.8898 6.4252-1.5118 6.4252-1.5118 6.0472-1.5118 6.8031-3.7795 12.094-1.5118 6.8031-1.8898 7.1811-1.1339 4.1575 6.0472-3.7795 4.9134-4.9134 1.5118-6.8031 2.2677-7.5591 1.1339-5.6693 1.8898-7.1811 1.8898-6.0472 1.8898-7.1811 1.5118-6.8031 2.2677-7.1811 1.8898-7.1811 1.5118-6.8031 2.2677-7.1811 1.5118-6.8031 1.8898-6.4252 1.8898-6.8031 1.5118-6.0472 2.2677-7.1811 1.5118-7.5591 2.2677-7.1811 5.6693-21.543 1.8898-7.5591-4.5354-3.7795-0.37795 8.315-2.6457 8.315-2.6457 9.0709-4.5354 18.142-2.6457 8.6929-2.2677 9.0709-2.6457 9.0709-2.2677 9.0709-2.6457 9.0709-2.2677 8.6929-2.2677 9.0709-2.6457 9.0709-1.8898 8.315-2.6457 8.6929-1.8898 9.0709-2.6457 8.6929-1.1339 3.7795-6.0472-1.1339 6.0472-7.5591 6.4252-7.1811 6.8031-8.315 2.6457-9.4488 2.2677-8.6929 2.2677-9.4488 2.6457-9.0709 1.8898-6.4252-6.0472 7.1811-6.4252 7.1811-6.0472 7.1811-1.1339 1.5118 2.6457-9.4488 2.2677-8.6929 2.2677-9.0709 3.0236-9.4488 1.5118-6.4252 18.142-21.543 1.1339-1.5118 2.2677-9.4488 2.6457-8.6929 2.2677-9.4488 2.6457-9.0709 1.8898-6.4252-6.0472 7.1811-6.4252 7.1811-6.8031 8.315 7.5591-4.5354 2.6457-7.937-0.37795-8.6929-5.6693-6.0472h15.118l3.7795 0.75591h-15.496l-3.7795 0.75591h7.5591l11.339 0.75591h-7.5591l-11.717 0.75591h15.874l3.0236 0.75591h-14.74l-4.5354 0.75591h8.315l10.583 0.75591h-6.8031l-12.472 0.75591h16.63l2.2677 0.75591h-13.984l-5.2913 0.75591h9.0709l9.8268 0.75591h-6.0472l-13.228 0.75591h2.2677l16.63 0.75591h-13.228l-6.0472 0.75591h9.8268l9.0709 0.75591h-5.2913l-13.984 0.75591h3.0236l15.496 0.75591h-12.094l-6.8031 0.75591h10.583l7.937 0.75591h-4.1575l-14.74 0.75591h3.7795l14.74 0.75591h-11.339l-7.5591 0.75591h11.339l7.1811 0.75591h-3.4016l-15.874 0.75591h4.9134l13.984 0.75591h-10.583l-8.6929 0.75591h12.472l6.4252 0.75591h-2.6457l-16.63 0.75591h5.6693l13.228 0.75591h-9.8268l-9.4488 0.75591h13.228l5.6693 0.75591h-17.008l-2.2677 0.75591h6.4252l12.472 0.75591h-9.0709l-10.205 0.75591h13.984l4.9134 0.75591h-16.252l-3.0236 0.75591h7.1811l11.717 0.75591h-8.315l-10.961 0.75591h14.74l4.1575 0.75591h-15.496l-3.7795 0.75591h7.937l10.961 0.75591h-7.5591l-11.717 0.75591h15.496l3.0236 0.75591h-14.362l-4.5354 0.75591h8.6929l9.8268 0.75591h-6.4252l-12.472 0.75591h16.252l2.2677 0.75591h-13.606l-5.2913 0.75591h9.4488l9.0709 0.75591h-5.6693l-13.228 0.75591 18.52 0.75591h-12.85l-6.0472 0.75591h10.205l8.315 0.75591h-4.9134l-13.984 0.75591h2.6457l15.874 0.75591h-12.094l-7.1811 0.75591h11.339l7.5591 0.75591h-4.1575l-15.118 0.75591h3.7795l15.118 0.75591h-11.339l-7.937 0.75591h12.094l6.8031 0.75591h-3.4016l-15.874 0.75591h4.5354l14.362 0.75591h-10.583l-8.6929 0.75591h12.85l6.0472 0.75591h-2.6457l-16.63 0.75591h5.2913l13.606 0.75591h-9.8268l-9.4488 0.75591h13.606l4.9134 0.75591h-16.63l-2.2677 0.75591h6.0472l12.472 0.75591h-8.6929l-10.205 0.75591h14.362l4.1575 0.75591h-15.874l-3.0236 0.75591h6.8031l11.717 0.75591h-7.937l-10.961 0.75591h15.118l3.4016 0.75591h-15.118l-3.7795 0.75591h7.5591l10.961 0.75591h-7.1811l-11.717 0.75591h15.874l2.6457 0.75591h-14.362l-4.5354 0.75591h8.315l10.205 0.75591h-6.4252l-12.85 0.75591h17.008l1.8898 0.75591h-13.606l-5.6693 0.75591h9.4488l9.4488 0.75591h-5.6693l-13.606 0.75591h2.6457l16.252 0.75591h-12.85l-6.4252 0.75591h10.205l8.6929 0.75591h-4.9134l-14.362 0.75591h3.4016l15.118 0.75591h-11.717l-7.1811 0.75591h10.961l7.5591 0.75591h-3.7795l-15.118 0.75591h4.1575l14.362 0.75591h-10.961l-7.937 0.75591h11.717l6.8031 0.75591h-3.0236l-15.874 0.75591h4.9134l13.606 0.75591h-10.205l-8.6929 0.75591h12.472l6.0472 0.75591h-2.2677l-16.63 0.75591h5.6693l12.85 0.75591h-9.4488l-9.4488 0.75591h13.228l5.2913 0.75591h-16.63l-2.2677 0.75591h6.4252l12.094 0.75591h-8.6929l-10.205 0.75591h13.984l4.5354 0.75591h-15.874l-3.0236 0.75591h7.1811l11.339 0.75591h-7.937l-11.339 0.75591h15.118l3.7795 0.75591h-15.118l-4.1575 0.75591h8.315l10.583 0.75591h-7.1811l-12.094 0.75591h15.874l3.0236 0.75591h-14.362l-4.9134 0.75591h9.0709l9.4488 0.75591h-6.0472l-12.85 0.75591h16.63l1.8898 0.75591h-13.228l-5.6693 0.75591h9.8268l8.6929 0.75591h-5.2913l-13.606 0.75591h2.2677l16.252 0.75591h-12.472l-6.4252 0.75591h10.583l7.937 0.75591h-4.5354l-14.362 0.75591h3.0236l15.496 0.75591h-11.717l-7.1811 0.75591h11.339l7.1811 0.75591h-3.7795l-15.118 0.75591h3.7795l14.74 0.75591h-10.961l-7.937 0.75591h12.094l6.4252 0.75591h-3.0236l-15.874 0.75591h4.5354l13.984 0.75591h-10.205l-8.6929 0.75591h12.85l5.6693 0.75591h-2.2677l-16.63 0.75591h5.2913l13.228 0.75591h-9.4488l-9.4488 0.75591h13.606l4.9134 0.75591h-16.63l-2.2677 0.75591h6.0472l12.094 0.75591h-8.315l-10.583 0.75591h14.74l3.7795 0.75591h-15.496l-3.4016 0.75591h7.1811l11.339 0.75591h-7.5591l-11.339 0.75591h15.496l3.0236 0.75591h-14.74l-4.1575 0.75591h7.937l10.583 0.75591h-6.8031l-12.094 0.75591h16.252l2.2677 0.75591h-13.984l-4.9134 0.75591h8.6929l9.8268 0.75591h-6.0472l-12.85 0.75591 18.52 0.75591h-13.228l-5.6693 0.75591h9.4488l9.0709 0.75591h-5.2913l-13.606 0.75591h2.6457l15.874 0.75591h-12.472l-6.4252 0.75591h10.205l8.315 0.75591h-4.5354l-14.362 0.75591h3.4016l15.118 0.75591h-11.717l-7.1811 0.75591h10.961l7.5591 0.75591h-3.7795l-15.118 0.75591h4.1575l13.984 0.75591h-10.583l-7.937 0.75591h11.717l6.4252 0.75591h-2.6457l-16.252 0.75591h5.2913l13.228 0.75591h-9.8268l-9.0709 0.75591h12.85l5.6693 0.75591h-17.008l-1.8898 0.75591h6.0472l12.472 0.75591h-9.0709l-9.8268 0.75591h13.606l4.9134 0.75591h-16.252l-2.6457 0.75591h6.8031l11.717 0.75591h-8.315l-10.583 0.75591h14.362l4.1575 0.75591h-15.496l-3.4016 0.75591h7.5591l10.961 0.75591h-7.5591l-11.339 0.75591h15.118l3.4016 0.75591h-14.74l-4.1575 0.75591h8.315l10.205 0.75591h-6.8031l-12.094 0.75591h15.874l2.6457 0.75591h-13.984l-4.9134 0.75591h9.0709l9.4488 0.75591h-6.0472l-12.85 0.75591 18.142 0.75591h-12.85l-5.6693 0.75591h9.8268l8.315 0.75591h-4.9134l-13.606 0.75591h2.2677l15.874 0.75591h-12.094l-6.8031 0.75591h10.961l7.5591 0.75591h-4.1575l-14.74 0.75591h3.4016l15.118 0.75591h-11.339l-7.5591 0.75591h11.717l6.8031 0.75591h-3.4016l-15.496 0.75591h4.1575l14.362 0.75591h-10.583l-8.315 0.75591h12.472l6.0472 0.75591h-2.6457l-16.252 0.75591h4.9134l13.606 0.75591h-9.8268l-9.0709 0.75591h13.228l4.9134 0.75591h-16.63l-1.8898 0.75591h5.6693l11.339 0.75591h-7.5591l-9.8268 0.75591h13.984l1.8898 0.75591h-13.606l-2.6457 0.75591h6.4252l8.315 0.75591h-4.5354l-10.583 0.75591 13.606 0.75591h-10.583l-3.4016 0.75591h7.1811l5.2913 0.75591-12.85 0.75591 11.339 0.75591h-7.5591l-4.1575 0.75591h7.937l2.2677 0.75591-10.583 0.75591 9.0709 0.75591h-4.5354l-4.9134 0.75591 7.937 0.75591-8.315 0.75591 6.8031 0.75591-7.5591 0.75591 6.0472 0.75591-6.4252 0.75591h3.0236l1.8898 0.75591-5.2913 0.75591 3.7795 0.75591-4.1575 0.75591 2.6457 0.75591-3.0236 0.75591 3.0236-0.75591-3.0236 0.75591 3.0236-0.75591-3.0236 0.75591 3.0236-0.75591-3.0236 0.75591" fill="none" stroke="#000" stroke-width=".4" inkstitch:manual_stitch="true"/>
  </g>
  <g id="__color_block_5__">
   <path transform="" d="m277.04-90.709-1.8898 4.1575 1.8898-4.1575-1.8898 4.1575 1.8898-4.1575-1.8898 4.1575 1.8898-4.1575-3.0236 6.4252-4.5354 5.2913 1.8898 6.8031 11.339 43.087 2.2677 6.8031 1.5118 7.1811 7.5591 28.724 2.2677 6.8031 3.7795 14.362 1.5118 7.1811 2.2677 7.1811 1.8898 7.1811 1.8898 6.8031 3.7795 14.362 4.5354 13.606 7.1811 0.75591 5.2913-5.2913 1.5118-6.0472 1.8898-7.1811 2.2677-7.1811 1.5118-6.4252 1.8898-6.0472 1.1339-6.4252 2.2677-7.1811 1.5118-6.0472 3.7795-14.362 1.5118-6.0472 2.2677-7.1811 4.9134-19.654 1.8898-6.0472 1.5118-6.0472 2.2677-7.1811 1.5118-7.5591 1.8898-6.0472 3.7795-14.362 1.5118-6.0472-4.1575-3.4016-4.1575 5.2913-1.8898 6.0472-1.5118 6.0472-1.5118 6.4252-1.8898 6.4252-1.8898 6.0472-1.5118 6.0472-1.5118 6.8031-1.8898 6.0472-1.5118 6.4252-3.7795 12.094-1.8898 6.4252-1.5118 6.4252-1.5118 6.0472-1.8898 6.4252-1.5118 6.8031-1.8898 6.0472-1.5118 6.0472-1.8898 6.4252-2.2677 6.8031-4.5354 6.0472-0.75591 1.8898-3.7795-5.2913-3.0236-6.0472-1.5118-7.1811-1.8898-6.4252-1.5118-5.6693-1.5118-6.4252-2.2677-7.1811-1.5118-6.0472-1.5118-6.4252-1.8898-6.0472-1.5118-6.4252-1.8898-6.8031-1.8898-6.4252-1.8898-7.1811-1.5118-6.0472-1.5118-6.4252-2.2677-7.1811-1.5118-6.0472-1.8898-6.0472-1.5118-6.4252-1.5118-6.0472-1.8898-6.0472-1.5118-6.0472-1.8898-6.0472 0.37795-4.9134-3.0236 9.8268 3.0236 8.6929 2.6457 9.0709 4.5354 18.142 2.6457 9.0709 2.2677 9.0709 2.6457 9.0709 2.2677 9.0709 2.2677 8.6929 2.6457 9.0709 2.2677 9.4488 2.6457 8.6929 2.2677 9.0709 2.6457 9.0709 1.8898 8.315 2.2677 7.937 4.1575 7.937 8.6929-0.75591 5.6693-9.0709-1.1339-0.75591 3.0236-8.315 2.2677-9.0709 2.2677-8.315 2.6457-9.0709 2.2677-8.6929 2.2677-8.315 2.2677-9.0709 2.2677-7.937 2.2677-8.6929 2.6457-9.0709 4.5354-18.142 2.2677-7.937 2.2677-9.0709 3.7795-7.5591 5.6693-2.6457-6.4252 7.1811-6.0472 7.1811-6.0472 7.5591-2.6457 9.4488-2.2677 8.6929-2.6457 9.4488-2.6457 9.0709-1.5118 6.8031 12.094-14.362 6.0472-7.5591-2.2677 9.4488-2.2677 8.6929-2.6457 9.4488-1.8898 9.0709-1.8898 6.0472-6.0472 7.5591-6.4252 7.1811-6.8031 8.315 4.5354 8.315-2.6457 8.6929-3.7795 8.6929-4.1575 7.937-3.0236 8.315-6.0472 6.0472-2.2677 1.8898 18.142-21.543 6.8031-8.315-1.8898 0.37795-4.5354 7.5591-8.315 1.8898-6.8031-5.6693-0.37795-7.1811-6.0472 7.1811-3.0236 3.4016-2.2677-8.6929-2.6457-9.4488-1.1339-4.1575 6.0472-7.1811 2.6457-3.0236-2.2677-9.0709-2.2677-9.4488-1.1339-3.7795-6.0472 7.1811-3.0236 3.4016-2.2677-9.0709-2.2677-9.4488-1.1339-3.7795 6.0472-7.5591 2.6457-3.4016-2.2677-8.6929-2.2677-9.4488-1.1339-4.1575-6.0472 7.1811-3.0236 3.7795-2.6457-9.4488-2.6457-8.6929-1.1339-4.1575 6.0472-7.1811 3.0236-3.4016-1.8898-9.0709-3.0236-9.0709-0.75591-4.5354-6.0472 7.5591-3.0236 3.4016 6.8031 4.1575 2.6457 7.937 1.8898 7.937 2.6457 8.315 2.2677 9.0709 2.6457 8.6929 4.5354 18.142 2.2677 8.6929 2.2677 8.315 2.6457 9.0709 2.2677 7.937 2.2677 9.0709 1.8898 7.937 2.6457 9.0709 3.0236 8.6929 3.4016 8.315 9.0709-1.8898 2.6457-8.315 1.1339-3.0236h1.5118l1.5118-9.4488 4.5354-17.386 2.6457-7.937 1.8898-8.6929 3.0236-8.6929 1.8898-9.0709 2.2677-9.0709 2.6457-9.0709 4.5354-18.142 2.6457-8.6929 2.6457-9.0709 2.6457-9.8268 9.8268-14.362-5.6693 7.5591-3.0236 5.6693-6.0472-1.8898 6.0472 7.1811 3.0236 3.4016-2.2677 9.0709-2.6457 9.4488-1.1339 3.7795-6.0472-7.1811-3.0236-3.4016-2.6457 9.0709-2.2677 9.0709-1.1339 3.7795 6.0472 7.1811 3.0236 3.7795-2.2677 9.0709-2.2677 9.4488-1.1339 3.7795-6.4252-7.1811-3.0236-3.7795-2.6457 9.0709-2.2677 9.0709-1.1339 3.7795 6.0472 7.1811 3.4016 4.1575-2.6457 9.0709-2.2677 9.4488-1.1339 3.7795-6.0472-7.1811-3.4016-3.7795 5.2913 6.4252 1.1339 1.5118-6.4252 6.0472-4.9134 7.5591-1.8898 1.8898-0.75591-3.0236 6.0472 7.1811 4.9134 5.6693-9.0709 0.37795-2.2677 0.37795-4.5354-7.937-4.9134-7.5591-1.8898-8.315-3.0236-9.0709-2.2677-8.315-2.6457-9.0709-2.2677-7.937-1.5118-8.6929-3.0236-8.315-1.5118-8.315-3.0236-8.315-2.2677-9.4488-2.2677-7.937-1.8898-8.315-4.5354-15.874-1.8898-8.315-4.5354-15.874 4.9134-13.228-1.8898 10.583-5.2913-2.2677 6.0472 7.1811 4.9134 5.6693 2.2677 9.4488 2.2677 8.6929 2.6457 9.4488 2.6457 9.0709 1.8898 6.8031-12.094-14.362-6.0472-6.8031 2.6457 9.0709 6.8031 27.213 1.8898 6.4252 18.142 21.543 2.6457 9.4488 2.2677 8.6929 2.2677 9.4488 3.0236 9.0709 1.5118 6.8031-18.142-21.543 2.2677 9.0709 2.6457 9.0709 2.2677 9.0709 2.6457 9.0709 1.8898 7.1811 6.0472 7.1811 4.9134 5.2913 0.75591-10.583-1.1339 1.1339 3.4016-9.0709 4.5354-7.1811 2.2677-8.315 2.2677-8.6929 2.2677-9.0709 2.6457-8.6929 4.5354-17.386 2.2677-9.0709 2.6457-8.6929 2.6457-9.0709 1.5118-7.937 3.0236-7.937 1.8898-9.4488 1.8898-7.937 3.0236-8.315 1.8898-9.4488 4.5354-7.5591 4.1575-7.1811 4.9134-7.937 3.7795-6.0472-2.6457 0.75591 2.2677 0.75591-3.4016 0.75591 3.0236 0.75591-4.9134 0.75591 4.5354 0.75591h-2.6457l-3.0236 0.75591 5.2913 0.75591-6.8031 0.75591 6.4252 0.75591-7.937 0.75591 7.5591 0.75591-9.0709 0.75591h3.7795l4.9134 0.75591-10.205 0.75591 9.8268 0.75591h-7.937l-3.4016 0.75591h6.8031l3.7795 0.75591-12.094 0.75591 11.717 0.75591h-6.8031l-6.4252 0.75591h9.8268l3.0236 0.75591-14.362 0.75591h3.7795l10.205 0.75591h-6.0472l-9.4488 0.75591h12.85l2.2677 0.75591h-13.606l-3.0236 0.75591h6.8031l9.4488 0.75591h-5.2913l-12.472 0.75591 17.386 0.75591h-12.85l-5.6693 0.75591h9.4488l8.6929 0.75591h-4.5354l-13.606 0.75591 17.764 0.75591h-12.094l-6.4252 0.75591h10.205l7.937 0.75591h-3.7795l-14.74 0.75591h3.0236l15.118 0.75591h-11.339l-7.1811 0.75591h10.961l7.1811 0.75591h-3.0236l-15.496 0.75591h3.7795l14.362 0.75591h-10.583l-7.937 0.75591h11.717l6.4252 0.75591h-2.2677l-16.252 0.75591h4.5354l13.606 0.75591h-9.8268l-8.6929 0.75591h12.472l5.2913 0.75591h-16.252l-1.8898 0.75591h5.2913l12.472 0.75591h-8.6929l-9.4488 0.75591h13.228l4.5354 0.75591h-15.496l-2.6457 0.75591h6.0472l11.717 0.75591h-7.937l-10.583 0.75591h14.362l3.7795 0.75591h-14.74l-3.7795 0.75591h7.1811l10.961 0.75591h-7.1811l-11.339 0.75591h15.118l3.0236 0.75591h-13.984l-4.5354 0.75591h7.937l10.205 0.75591h-6.4252l-12.094 0.75591h15.874l2.2677 0.75591h-13.228l-5.2913 0.75591h8.6929l9.4488 0.75591h-5.6693l-12.85 0.75591 18.142 0.75591h-12.472l-6.0472 0.75591h9.4488l8.6929 0.75591h-4.9134l-13.606 0.75591h2.2677l15.874 0.75591h-11.717l-6.8031 0.75591h10.205l7.937 0.75591h-4.1575l-14.362 0.75591h3.0236l14.74 0.75591h-10.583l-7.937 0.75591h11.339l6.8031 0.75591h-3.0236l-15.496 0.75591h4.1575l13.984 0.75591h-9.8268l-8.6929 0.75591h12.094l6.0472 0.75591h-2.2677l-16.252 0.75591h4.9134l13.228 0.75591h-9.0709l-9.4488 0.75591h12.85l5.2913 0.75591h-16.63l-1.8898 0.75591h5.6693l12.472 0.75591h-8.315l-10.205 0.75591h13.606l4.5354 0.75591h-15.874l-2.6457 0.75591h6.4252l11.717 0.75591h-7.5591l-10.961 0.75591h14.362l3.7795 0.75591h-15.118l-3.4016 0.75591h7.1811l10.961 0.75591h-6.8031l-11.717 0.75591h15.118l3.0236 0.75591h-14.362l-4.1575 0.75591h7.937l10.205 0.75591h-6.0472l-12.85 0.75591h16.252l2.2677 0.75591h-13.606l-5.2913 0.75591h9.0709l9.0709 0.75591h-4.9134l-13.606 0.75591 18.142 0.75591h-12.472l-6.0472 0.75591h9.8268l8.315 0.75591h-4.1575l-14.362 0.75591h2.6457l15.496 0.75591h-11.717l-6.8031 0.75591h10.583l7.5591 0.75591h-3.4016l-15.118 0.75591h3.4016l14.74 0.75591h-10.961l-7.5591 0.75591h11.339l6.8031 0.75591h-2.6457l-15.874 0.75591h4.1575l13.984 0.75591h-10.205l-8.315 0.75591h12.094l6.0472 0.75591-18.52 0.75591h4.9134l13.228 0.75591h-9.4488l-9.0709 0.75591h12.85l5.2913 0.75591h-16.252l-2.6457 0.75591h6.0472l12.472 0.75591h-8.6929l-10.205 0.75591h13.984l4.5354 0.75591h-15.496l-3.4016 0.75591h6.8031l11.717 0.75591h-7.937l-10.961 0.75591h14.74l3.7795 0.75591h-14.74l-4.1575 0.75591h7.5591l10.961 0.75591h-7.1811l-11.717 0.75591h15.496l2.6457 0.75591h-13.606l-4.9134 0.75591h8.315l9.8268 0.75591h-6.0472l-12.472 0.75591h16.252l1.8898 0.75591h-12.85l-5.6693 0.75591h9.0709l9.0709 0.75591h-5.2913l-13.228 0.75591 18.142 0.75591h-12.094l-6.4252 0.75591h9.8268l8.315 0.75591h-4.5354l-14.362 0.75591h3.0236l15.496 0.75591h-11.339l-7.5591 0.75591h10.961l7.5591 0.75591h-3.7795l-15.118 0.75591h3.7795l14.74 0.75591h-10.583l-8.315 0.75591h11.717l6.8031 0.75591h-3.0236l-15.874 0.75591h4.5354l13.984 0.75591h-9.8268l-9.0709 0.75591h12.472l6.0472 0.75591h-2.2677l-16.63 0.75591h5.2913l12.85 0.75591h-8.6929l-9.8268 0.75591h13.228l4.9134 0.75591h-16.252l-2.2677 0.75591h6.0472l12.094 0.75591h-7.937l-10.583 0.75591h13.984l4.1575 0.75591h-15.496l-3.4016 0.75591h7.1811l11.339 0.75591h-7.1811l-11.339 0.75591h14.74l3.4016 0.75591h-14.74l-4.1575 0.75591h7.937l10.583 0.75591h-6.4252l-12.472 0.75591h15.874l2.6457 0.75591h-13.984l-4.9134 0.75591h8.6929l9.8268 0.75591h-5.6693l-13.228 0.75591h16.63l1.8898 0.75591h-13.228l-5.6693 0.75591h9.4488l9.0709 0.75591h-4.9134l-13.984 0.75591h2.2677l16.252 0.75591h-12.472l-6.4252 0.75591h10.205l8.315 0.75591h-4.1575l-14.74 0.75591h3.0236l15.496 0.75591h-11.717l-7.1811 0.75591h10.961l7.5591 0.75591h-3.4016l-15.496 0.75591h3.7795l14.74 0.75591h-10.961l-8.315 0.75591h12.094l6.8031 0.75591h-2.6457l-16.252 0.75591h4.5354l13.606 0.75591h-9.8268l-9.0709 0.75591h12.85l5.6693 0.75591h-16.63l-2.2677 0.75591h5.6693l12.85 0.75591h-9.0709l-9.8268 0.75591h13.606l4.9134 0.75591h-15.874l-3.0236 0.75591h6.4252l12.094 0.75591h-8.315l-10.583 0.75591h14.362l4.1575 0.75591h-15.118l-3.7795 0.75591h7.1811l11.339 0.75591h-7.5591-10.961l0.37795 9.0709v4.1575l-6.8031-6.8031-3.0236-8.6929-1.5118-8.6929-4.5354-16.63-2.6457-9.0709-2.2677-8.6929-2.2677-9.0709-4.5354-16.63-2.2677-8.6929-3.0236-8.6929-1.8898-8.6929-3.0236-8.6929-1.8898-8.315-2.2677-8.6929-2.2677-8.315-2.6457-7.937 1.1339-9.8268 1.5118-9.0709h1.8898l-3.7795 0.75591 4.1575 0.75591-5.2913 0.75591 5.6693 0.75591-7.1811 0.75591 7.5591 0.75591h-4.9134l-4.5354 0.75591 9.8268 0.75591-10.961 0.75591 11.339 0.75591h-5.6693l-7.1811 0.75591h11.339l1.8898 0.75591-14.74 0.75591h4.9134l10.583 0.75591h-6.8031l-10.205 0.75591h14.362l3.0236 0.75591h-14.74l-3.7795 0.75591h7.5591l11.339 0.75591h-7.5591l-10.961 0.75591h15.118l3.7795 0.75591h-15.496l-3.0236 0.75591h6.8031l12.094 0.75591h-8.315l-10.205 0.75591h14.362l4.5354 0.75591h-16.252l-1.8898 0.75591h5.6693l12.85 0.75591h-9.0709l-9.0709 0.75591h13.228l5.2913 0.75591-18.142 0.75591h4.9134l13.606 0.75591h-9.8268l-8.315 0.75591h12.472l6.0472 0.75591h-2.6457l-15.496 0.75591h4.1575l14.362 0.75591h-10.583l-7.5591 0.75591h11.717l6.8031 0.75591h-3.4016l-14.74 0.75591h3.4016l15.118 0.75591h-11.339l-6.8031 0.75591h10.961l7.5591 0.75591h-4.1575l-13.984 0.75591h2.6457l16.252 0.75591h-12.472l-6.0472 0.75591h10.205l8.6929 0.75591h-5.2913l-13.228 0.75591h17.008l1.8898 0.75591h-13.228l-5.2913 0.75591h9.4488l9.4488 0.75591h-6.0472l-12.094 0.75591h15.874l2.6457 0.75591h-13.984l-4.5354 0.75591h8.6929l10.205 0.75591h-6.8031l-11.339 0.75591h15.118l3.4016 0.75591h-14.74l-3.4016 0.75591h7.5591l10.961 0.75591h-7.5591l-10.583 0.75591h14.362l4.1575 0.75591h-15.496l-2.6457 0.75591h6.8031l11.717 0.75591h-8.315l-9.8268 0.75591h13.606l4.9134 0.75591h-16.252l-1.8898 0.75591h6.0472l12.472 0.75591h-9.0709l-9.0709 0.75591h12.85l5.6693 0.75591-18.142 0.75591h5.2913l13.228 0.75591h-9.8268l-8.315 0.75591h12.094l6.8031 0.75591h-3.0236l-15.496 0.75591h4.5354l14.362 0.75591h-10.961l-7.5591 0.75591h11.339l7.5591 0.75591h-3.7795l-14.74 0.75591h3.7795l15.118 0.75591h-11.717l-6.4252 0.75591h10.205l8.315 0.75591h-4.5354l-13.606 0.75591h2.6457l15.874 0.75591h-12.472l-5.6693 0.75591h9.4488l9.0709 0.75591h-5.2913l-12.85 0.75591 18.52 0.75591h-13.228l-4.9134 0.75591h8.6929l9.8268 0.75591h-6.0472l-12.094 0.75591h16.252l2.2677 0.75591h-13.984l-4.1575 0.75591h7.937l10.583 0.75591h-6.8031l-11.339 0.75591h15.496l3.0236 0.75591h-14.74l-3.4016 0.75591h7.1811l11.339 0.75591h-7.5591l-10.583 0.75591h14.74l4.1575 0.75591h-15.874l-2.6457 0.75591h6.4252l12.472 0.75591h-8.6929l-9.8268 0.75591h13.984l4.9134 0.75591h-16.63l-1.8898 0.75591h5.6693l13.228 0.75591h-9.4488l-9.0709 0.75591h13.228l5.6693 0.75591h-2.2677l-15.874 0.75591h4.5354l13.984 0.75591h-10.205l-7.937 0.75591h12.094l6.4252 0.75591h-3.0236l-15.118 0.75591h3.7795l14.74 0.75591h-10.961l-7.1811 0.75591h11.339l7.1811 0.75591h-3.7795l-14.362 0.75591h3.0236l15.496 0.75591h-11.717l-6.4252 0.75591h10.583l7.937 0.75591h-4.5354l-13.606 0.75591h2.2677l16.252 0.75591h-12.472l-5.6693 0.75591h9.8268l8.6929 0.75591h-5.2913l-12.85 0.75591h16.63l1.8898 0.75591h-13.228l-4.9134 0.75591h9.0709l9.8268 0.75591h-6.4252l-12.094 0.75591h15.874l3.0236 0.75591h-14.362l-4.1575 0.75591h8.315l10.583 0.75591h-7.1811l-10.961 0.75591h14.74l3.7795 0.75591h-15.118l-3.0236 0.75591h7.1811l11.339 0.75591h-7.937l-10.205 0.75591h13.984l4.5354 0.75591h-15.874l-2.2677 0.75591h6.4252l12.094 0.75591h-8.6929l-9.4488 0.75591h13.228l5.2913 0.75591-18.142 0.75591h5.6693l12.85 0.75591h-9.4488l-8.6929 0.75591h12.472l6.0472 0.75591h-2.2677l-15.874 0.75591h4.9134l13.606 0.75591h-10.205l-7.937 0.75591h11.717l6.8031 0.75591h-3.0236l-15.118 0.75591h4.1575l14.362 0.75591h-10.961l-7.1811 0.75591h10.961l7.5591 0.75591h-3.7795l-14.362 0.75591h3.4016l15.496 0.75591h-12.094l-6.4252 0.75591h10.205l8.6929 0.75591h-4.9134l-13.606 0.75591h2.6457l16.252 0.75591h-12.85l-5.2913 0.75591h9.0709l9.4488 0.75591h-5.6693l-12.472 0.75591h16.63l1.8898 0.75591h-13.606l-4.5354 0.75591h8.315l10.205 0.75591h-6.4252l-11.717 0.75591h15.874l2.6457 0.75591h-14.362l-3.7795 0.75591h7.5591l10.961 0.75591h-7.1811l-10.961 0.75591h15.118l3.4016 0.75591h-15.118l-3.0236 0.75591h6.8031l11.717 0.75591h-7.937l-10.205 0.75591h14.362l4.1575 0.75591h-15.874l-2.2677 0.75591h6.0472l12.472 0.75591h-8.6929l-9.4488 0.75591h13.606l4.9134 0.75591-18.142 0.75591h5.2913l13.606 0.75591h-9.8268l-8.6929 0.75591h12.85l6.0472 0.75591h-2.6457l-15.496 0.75591h4.1575l14.362 0.75591h-10.583l-7.5591 0.75591h11.717l6.8031 0.75591h-3.4016l-14.74 0.75591h3.4016l15.118 0.75591h-11.339l-6.8031 0.75591h10.961l7.5591 0.75591h-4.1575l-13.984 0.75591h2.6457l15.874 0.75591h-12.094l-6.0472 0.75591h10.205l8.315 0.75591h-4.9134l-13.228 0.75591 18.52 0.75591h-12.85l-5.2913 0.75591h9.4488l9.0709 0.75591h-5.6693l-12.472 0.75591h16.252l2.2677 0.75591h-13.606l-4.5354 0.75591h8.6929l9.8268 0.75591h-6.4252l-11.717 0.75591h15.496l3.0236 0.75591h-14.362l-3.7795 0.75591h7.937l10.583 0.75591h-7.1811l-10.961 0.75591h14.74l4.1575 0.75591h-15.496l-3.0236 0.75591h7.1811 11.339l7.5591 0.37795 10.961 0.37795h-11.339-15.118l-9.8268 0.75591h13.606 15.118l7.1811 0.75591h-3.4016-15.118-15.118l-1.8898 0.75591h6.0472 15.118l13.984 0.75591h-10.583-15.118l-9.0709 0.75591h12.85 15.118l6.4252 0.75591h-2.6457-15.118l-16.252 0.75591h5.2913 15.118l13.228 0.75591h-9.8268-15.118l-8.315 0.75591h12.094 15.118l5.6693 0.75591h-17.008l-15.496 0.75591h4.5354 15.118l12.472 0.75591h-9.0709-15.118l-7.5591 0.75591h11.339 15.118l4.9134 0.75591h-16.252l-14.74 0.75591h3.7795 15.118l11.717 0.75591h-8.315-15.118l-6.8031 0.75591h10.583 15.118l4.1575 0.75591h-15.496l-13.984 0.75591h3.0236 15.118l10.961 0.75591h-7.5591-15.118l-6.0472 0.75591h9.8268 15.118l3.4016 0.75591h-14.74l-13.228 0.75591h2.2677 15.118l10.205 0.75591h-6.8031-15.118l-4.9134 0.75591h8.6929 15.118l2.6457 0.75591h-13.984l-12.094 0.75591h16.252l9.4488 0.75591h-6.0472-15.118l-4.1575 0.75591h7.937l16.63 0.75591h-12.85l-11.339 0.75591h15.496l8.315 0.75591h-4.9134-15.118l-3.4016 0.75591h7.1811l15.874 0.75591h-12.094l-10.583 0.75591h14.74l7.5591 0.75591h-4.1575-15.118l-2.6457 0.75591h6.4252l15.118 0.75591h-11.339l-9.8268 0.75591h13.984l6.8031 0.75591h-3.4016-15.118l-1.8898 0.75591h5.6693l14.362 0.75591h-10.583-9.0709 4.5354 4.5354-4.5354-4.5354 4.5354-4.5354" fill="none" stroke="#2E7E20" stroke-width=".4" inkstitch:manual_stitch="true"/>
  </g>
 </g>
 <defs>
  <symbol id="inkstitch_trim">
   <title>Trim the thread after sewing this object.</title>
   <path d="m9.2465-8.6e-6c1.8e-6 2.4523-0.97418 4.8042-2.7082 6.5383-1.7341 1.7341-4.086 2.7083-6.5383 2.7083-2.4523 2e-6 -4.8042-0.97419-6.5383-2.7083-1.7341-1.7341-2.7083-4.086-2.7083-6.5383 6e-7 -2.4523 0.97419-4.8042 2.7083-6.5383 1.7341-1.7341 4.086-2.7083 6.5383-2.7082 5.1067 2e-6 9.2465 4.1398 9.2466 9.2466v0" fill="#fafafa" fill-rule="evenodd" stroke="#039" stroke-dasharray="3.19500017, 3.19500017" stroke-linecap="round" stroke-width="1.065"/>
   <path d="m-3-5.9834c-1.3058 0-2.375 1.0692-2.375 2.375 0 1.3058 1.0692 2.375 2.375 2.375 0.58687 0 1.1194-0.22369 1.5352-0.58007l0.61718 1.6211s-2.2988 6.0176-2.2988 6.0176c0.98655-0.12511 1.2373-0.26171 1.6738-0.97461l1.3301-3.1894 1.2363 3.25c0.23227 0.77906 0.84315 0.79218 1.5781 1.0723 0 0-2.0547-6.1426-2.0547-6.1426l0.73047-1.75c0.42849 0.41682 1.0114 0.67578 1.6523 0.67578 1.3058 0 2.375-1.0692 2.375-2.375 0-1.3058-1.0692-2.375-2.375-2.375-1.0623 0-1.957 0.71265-2.2578 1.6797l-0.0117-0.0156-0.80274 2.1016-0.59179-1.7656c-0.18242-1.1281-1.1586-2-2.3359-2l-2e-5 -3e-5m0 1c0.76531 0 1.375 0.60968 1.375 1.375 0 0.76531-0.60969 1.375-1.375 1.375s-1.375-0.60969-1.375-1.375c0-0.76532 0.60969-1.375 1.375-1.375m6 0c0.76531 0 1.375 0.60968 1.375 1.375 0 0.76531-0.60969 1.375-1.375 1.375s-1.375-0.60969-1.375-1.375c0-0.76532 0.60969-1.375 1.375-1.375" color="#000000" color-rendering="auto" dominant-baseline="auto" fill="#050505" fill-rule="evenodd" image-rendering="auto" shape-rendering="auto" solid-color="#000000" style="font-feature-settings:normal;font-variant-alternates:normal;font-variant-caps:normal;font-variant-ligatures:normal;font-variant-numeric:normal;font-variant-position:normal;isolation:auto;mix-blend-mode:normal;shape-padding:0;text-decoration-color:#000000;text-decoration-line:none;text-decoration-style:solid;text-indent:0;text-orientation:mixed;text-transform:none;white-space:normal"/>
  </symbol>
 </defs>
</svg>
